<!-- <svg xmlns="http://www.w3.org/2000/svg" fill="none" viewBox="0 0 500 500"><g
clip-path="url(#a)"><circle cx="250" cy="250" r="250" fill="#fff"/><path fill="#18B6F6" d="m367.87
418.45-61.17-61.18-.94.13v-.67L175.7 227.53l32.05-31.13L188.9 87.73 99.56 199.09c-15.22 15.42-18.03
40.51-7.08 59.03l55.83 93.11a46.82 46.82 0 0 0 40.73 22.81l27.65-.27 151.18 44.68Z"/><path
fill="#AC7EF4" d="m401.25 196.94-12.29-22.81-6.41-11.67-2.54-4.56-.26.26-33.66-58.63a47.07 47.07 0 0
0-41.27-23.75l-29.51.8-88.01.28a47.07 47.07 0 0 0-40.33 23.34L93.4 207l95.76-119.54L314.7
226.19l-22.3 22.67 13.35 108.54.13-.26v.26h-.26l.26.27 10.42 10.2 50.62 49.78c2.13 2 5.6-.4
4.13-2.96l-31.25-61.85 54.5-101.3 1.73-2c.67-.81 1.33-1.62 1.87-2.42a46.8 46.8 0 0 0
3.34-50.18Z"/><path fill="#fff" d="M315.1 225.65 189.18 87.6l17.9 108.14L175 227l130.5
130.27-11.75-108.14 21.37-23.48Z"/></g><defs><clipPath id="a"><path fill="#fff" d="M0
0h500v500H0z"/></clipPath></defs></svg> -->
<svg xmlns="http://www.w3.org/2000/svg" viewBox="0 0 246 246" fill="none">
  <g fill="none" fillRule="evenodd" id="Page-8" stroke="none" strokeWidth="1">
    <g fill="none" id="akeso_logomanual_v3" transform="translate(-890.000000, -291.000000)">
      <g id="Group-49" transform="translate(890.000000, 291.000000)" fill="#0000ff">
        <path
          d="M219.7843,52.0682 C211.0323,40.0592 200.1993,29.6032 187.8553,21.3252 C185.6683,19.8592 183.4353,18.4602 181.1613,17.1312 C142.9293,-5.2008 95.8463,-5.7378 58.2513,15.7472 C16.5733,39.5652 -5.9237,86.5032 2.2073,132.5522 C9.8363,175.7582 44.6153,210.1542 86.6563,216.2002 C115.3113,220.3222 144.3983,211.0322 164.3403,191.3512 C182.4913,173.4382 191.6513,147.2562 189.3523,121.8892 C187.4693,99.1332 174.9383,81.6122 159.0083,69.8052 C139.6073,55.4252 113.3633,52.1152 92.1093,61.3712 C72.7513,69.8012 58.8733,88.1342 56.7343,108.0802 C55.3033,121.4232 59.4673,135.5312 67.8623,145.8192 C75.2283,154.8462 85.4163,160.4022 96.5463,161.4642 C109.9613,162.7442 124.0903,156.0262 130.8923,145.1222 C136.5133,136.1162 136.4343,125.5672 130.6743,116.1822 C127.0473,110.2682 119.3133,108.4152 113.3983,112.0432 C110.7493,113.6682 108.7723,116.2572 107.9063,119.2422 C107.4913,120.6702 107.2603,122.3022 107.4143,123.7882 C107.6153,125.7432 108.4483,127.5672 108.4763,129.5692 C108.5083,131.9602 107.3443,134.2702 105.0963,135.2612 C103.1703,136.1262 100.9493,136.6472 98.9363,136.4532 C94.4153,136.0212 90.5123,133.8282 87.3353,129.9342 C83.1583,124.8152 81.0093,117.4672 81.7293,110.7592 C82.9223,99.6372 90.9443,89.2942 102.1673,84.4052 C115.3313,78.6742 131.7883,80.8632 144.0993,89.9892 C154.4723,97.6782 162.7913,108.5802 163.9633,124.2042 C165.4253,143.6922 159.3163,160.7622 146.4433,173.4652 C132.0613,187.6592 110.9843,194.3352 90.0573,191.3272 C58.6153,186.8052 32.6293,160.8382 26.8623,128.1782 C20.6683,93.1002 38.6853,55.8332 70.6743,37.5532 C100.0433,20.7712 138.4283,21.2642 168.4663,38.8112 C181.2273,46.2652 192.2493,56.5162 200.7003,68.6332 C219.4403,95.5012 220.5323,124.8842 220.5163,156.3422 C220.5133,164.3542 220.5093,175.5572 220.5053,183.5692 L220.5053,204.5592 L220.5073,204.5592 C220.5073,204.5712 220.5053,204.5812 220.5053,204.5922 C220.5053,211.5342 226.1323,217.1612 233.0743,217.1612 C240.0163,217.1612 245.6433,211.5342 245.6433,204.5922 C245.6433,204.5812 245.6413,204.5712 245.6413,204.5592 L245.6433,204.5592 L245.6433,183.5692 C245.7243,138.5772 247.8463,90.5742 219.7843,52.0682"
          id="Fill-37"
        />
      </g>
    </g>
  </g>
  <defs><clipPath id="a"><path fill="#fff" d="M0
    0h500v500H0z"/></clipPath></defs>
</svg>
