<svg width="246" height="246" xmlns="http://www.w3.org/2000/svg" fill="none">
 <g>
  <g strokeWidth="1" id="Page-8" fillRule="evenodd" fill="none">
   <g id="akeso_logomanual_v3" fill="none">
    <g id="Group-49" fill="none">
     <path fill="#1c72d8" id="Fill-37" d="m219.7843,66.48744c-8.752,-12.009 -19.585,-22.465 -31.929,-30.743c-2.187,-1.466 -4.42,-2.865 -6.694,-4.194c-38.232,-22.332 -85.315,-22.869 -122.91,-1.384c-41.678,23.818 -64.175,70.756 -56.044,116.805c7.629,43.206 42.408,77.602 84.449,83.648c28.655,4.122 57.742,-5.168 77.684,-24.849c18.151,-17.913 27.311,-44.095 25.012,-69.462c-1.883,-22.756 -14.414,-40.277 -30.344,-52.084c-19.401,-14.38 -45.645,-17.69 -66.899,-8.434c-19.358,8.43 -33.236,26.763 -35.375,46.709c-1.431,13.343 2.733,27.451 11.128,37.739c7.366,9.027 17.554,14.583 28.684,15.645c13.415,1.28 27.544,-5.438 34.346,-16.342c5.621,-9.006 5.542,-19.555 -0.218,-28.94c-3.627,-5.914 -11.361,-7.767 -17.276,-4.139c-2.649,1.625 -4.626,4.214 -5.492,7.199c-0.415,1.428 -0.646,3.06 -0.492,4.546c0.201,1.955 1.034,3.779 1.062,5.781c0.032,2.391 -1.132,4.701 -3.38,5.692c-1.926,0.865 -4.147,1.386 -6.16,1.192c-4.521,-0.432 -8.424,-2.625 -11.601,-6.519c-4.177,-5.119 -6.326,-12.467 -5.606,-19.175c1.193,-11.122 9.215,-21.465 20.438,-26.354c13.164,-5.731 29.621,-3.542 41.932,5.584c10.373,7.689 18.692,18.591 19.864,34.215c1.462,19.488 -4.647,36.558 -17.52,49.261c-14.382,14.194 -35.459,20.87 -56.386,17.862c-31.442,-4.522 -57.428,-30.489 -63.195,-63.149c-6.194,-35.078 11.823,-72.345 43.812,-90.625c29.369,-16.782 67.754,-16.289 97.792,1.258c12.761,7.454 23.783,17.705 32.234,29.822c18.74,26.868 19.832,56.251 19.816,87.709c-0.003,8.012 -0.007,19.215 -0.011,27.227l0,20.99l0.002,0c0,0.012 -0.002,0.022 -0.002,0.033c0,6.942 5.627,12.569 12.569,12.569c6.942,0 12.569,-5.627 12.569,-12.569c0,-0.011 -0.002,-0.021 -0.002,-0.033l0.002,0l0,-20.99c0.081,-44.992 2.203,-92.995 -25.859,-131.501"/>
    </g>
   </g>
  </g>
 </g>
</svg>