<?xml version="1.0" encoding="UTF-8"?>
<svg width="1920px" height="800px" viewBox="0 0 1920 800" version="1.1" xmlns="http://www.w3.org/2000/svg" xmlns:xlink="http://www.w3.org/1999/xlink" style="background: #1C72D8;">
    <!-- Generator: Sketch 47 (45396) - http://www.bohemiancoding.com/sketch -->
    <title>Mobile Retina</title>
    <desc>Created with Sketch.</desc>
    <defs></defs>
    <g id="Page-1" stroke="none" stroke-width="1" fill="none" fill-rule="evenodd">
        <g id="Mobile-Retina" fill="#1C6BD3">
            <path d="M460.821178,351.034905 C453.084844,340.418101 443.504558,331.172056 432.591069,323.856338 C430.656986,322.556934 428.685347,321.321374 426.672398,320.145902 C392.869125,300.403228 351.243141,299.926279 318.006949,318.921608 C281.157964,339.982463 261.26507,381.48076 268.456856,422.194157 C275.201738,460.395122 305.948032,490.803422 343.119991,496.147501 C368.454607,499.794093 394.168529,491.580811 411.800611,474.177815 C427.84787,458.340863 435.948488,435.191949 433.916762,412.764091 C432.249319,392.645867 421.170588,377.154422 407.087456,366.717882 C389.932323,354.001752 366.730832,351.076216 347.9383,359.259455 C330.824477,366.714126 318.555252,382.922873 316.662479,400.554954 C315.396875,412.354741 319.081023,424.826763 326.501895,433.922589 C333.013935,441.903031 342.023384,446.815227 351.862799,447.754103 C363.722674,448.888264 376.217229,442.94706 382.229788,433.306687 C387.198317,425.345023 387.126963,416.016356 382.038258,407.720452 C378.831059,402.492793 371.99229,400.851639 366.760876,404.062593 C364.421198,405.497195 362.671134,407.788051 361.905012,410.424413 C361.540728,411.686262 361.334175,413.13213 361.469373,414.446556 C361.649637,416.174087 362.385716,417.785197 362.412004,419.554039 C362.438293,421.668386 361.409285,423.711379 359.422625,424.586411 C357.717627,425.352534 355.757255,425.81446 353.977147,425.641707 C349.977537,425.258646 346.529987,423.320807 343.717116,419.877012 C340.025457,415.351632 338.125173,408.854614 338.763608,402.924676 C339.818905,393.092772 346.909292,383.948125 356.831328,379.625542 C368.469629,374.55937 383.022199,376.493453 393.905644,384.560271 C403.076579,391.361485 410.433608,400.998103 411.466371,414.81084 C412.762019,432.041083 407.357852,447.134445 395.978681,458.367151 C383.262551,470.914283 364.62775,476.817932 346.124392,474.159037 C318.326167,470.159428 295.353761,447.202044 290.25379,418.32599 C284.778268,387.313054 300.705352,354.36228 328.988037,338.202355 C354.953577,323.364367 388.892049,323.800005 415.447203,339.313984 C426.732486,345.90489 436.478014,354.966916 443.947707,365.681363 C460.516982,389.434913 461.482146,415.415476 461.467124,443.228723 C461.467124,450.3116 461.463368,460.214858 461.459613,467.297735 L461.459613,485.857426 L461.459613,485.857426 C461.459613,485.868692 461.459613,485.876203 461.459613,485.88747 C461.459613,492.02396 466.435653,497 472.572143,497 C478.708633,497 483.684673,492.02396 483.684673,485.88747 C483.684673,485.876203 483.680918,485.868692 483.680918,485.857426 L483.684673,485.857426 L483.684673,467.297735 C483.756028,427.519458 485.630023,385.078531 460.821178,351.034905" id="Fill-1065"></path>
            <path d="M210.688273,247.129241 C208.713896,244.419744 206.268927,242.060076 203.483714,240.193044 C202.99012,239.861426 202.486941,239.5461 201.97322,239.24611 C193.346343,234.207615 182.723045,234.085894 174.240892,238.93366 C164.836724,244.308566 159.759891,254.899277 161.595295,265.289675 C163.316645,275.03888 171.163356,282.799331 180.649949,284.163185 C187.115554,285.093826 193.677962,282.997727 198.177816,278.556338 C202.27321,274.514616 204.340555,268.60682 203.822042,262.883044 C203.396497,257.748705 200.569112,253.795159 196.974979,251.131667 C192.596846,247.886405 186.675633,247.139784 181.879622,249.228215 C177.512032,251.130709 174.380823,255.267316 173.897772,259.76717 C173.574779,262.778574 174.515004,265.961538 176.408873,268.282869 C178.0708,270.319544 180.370086,271.573177 182.881187,271.812786 C185.907926,272.102234 189.09664,270.585989 190.631095,268.125685 C191.899106,266.093802 191.880895,263.713049 190.582215,261.595865 C189.763711,260.261723 188.018401,259.842887 186.6833,260.662349 C186.086195,261.028471 185.639564,261.613117 185.444043,262.285938 C185.351075,262.607973 185.298361,262.97697 185.332865,263.312423 C185.37887,263.753303 185.566723,264.164472 185.573432,264.615895 C185.580141,265.155494 185.31753,265.676883 184.810517,265.900198 C184.375388,266.095719 183.875084,266.213607 183.420786,266.169519 C182.400052,266.071758 181.520209,265.577206 180.802341,264.69832 C179.860199,263.543406 179.37523,261.885312 179.538164,260.371943 C179.807485,257.862759 181.617011,255.528969 184.149197,254.42581 C187.119388,253.13288 190.833325,253.626475 193.610871,255.685194 C195.95137,257.42092 197.828945,259.880266 198.092515,263.405391 C198.423175,267.802693 197.043987,271.654644 194.139927,274.521325 C190.894665,277.723457 186.138909,279.230118 181.416698,278.551546 C174.322359,277.530812 168.459609,271.671896 167.158054,264.302487 C165.760655,256.387727 169.82538,247.978415 177.043357,243.854267 C183.669979,240.067489 192.33136,240.178668 199.108457,244.137964 C201.988555,245.820018 204.475695,248.132723 206.382023,250.867139 C210.61064,256.929243 210.856958,263.559699 210.853124,270.657872 C210.853124,272.465481 210.852165,274.992875 210.851207,276.800484 L210.851207,281.537072 L210.851207,281.537072 C210.851207,281.539947 210.851207,281.541864 210.851207,281.544739 C210.851207,283.110823 212.121134,284.38075 213.687217,284.38075 C215.253301,284.38075 216.523228,283.110823 216.523228,281.544739 C216.523228,281.541864 216.522269,281.539947 216.522269,281.537072 L216.523228,281.537072 L216.523228,276.800484 C216.541438,266.648736 217.019697,255.817458 210.688273,247.129241" id="Fill-1065" transform="translate(188.880750, 259.880750) rotate(-45.000000) translate(-188.880750, -259.880750) "></path>
            <path d="M271.461128,-1.31000775 C268.278127,-5.67813559 264.33646,-9.48228513 259.846265,-12.4922296 C259.050515,-13.0268501 258.239313,-13.5352032 257.411115,-14.0188339 C243.503256,-22.1416666 226.376857,-22.3379001 212.702315,-14.5225515 C197.541342,-5.85737253 189.356703,11.2164912 192.315658,27.9674193 C195.09074,43.6846448 207.740851,56.1956923 223.034706,58.3944351 C233.458261,59.8947719 244.037876,56.5155375 251.292337,49.3553308 C257.894746,42.8394499 261.227626,33.3151698 260.391702,24.0875576 C259.705657,15.8102103 255.147476,9.43648294 249.353179,5.1425221 C242.294952,-0.0893423767 232.749039,-1.29301114 225.017129,2.07386207 C217.975898,5.14097696 212.927906,11.8098272 212.149152,19.0642879 C211.628438,23.9191367 213.144226,29.0505667 216.197435,32.7929104 C218.876718,36.0763457 222.583524,38.0973968 226.631806,38.4836833 C231.511377,38.9503174 236.652078,36.5058963 239.125857,32.5395065 C241.170085,29.2637969 241.140727,25.4256541 239.047055,22.0124265 C237.7275,19.8615832 234.913789,19.1863544 232.761401,20.5074543 C231.798775,21.0977001 231.078736,22.0402392 230.763527,23.1249317 C230.613648,23.6441007 230.528664,24.238982 230.58429,24.7797831 C230.658457,25.4905502 230.961305,26.1534179 230.972121,26.8811817 C230.982937,27.7510989 230.559567,28.5916583 229.742185,28.9516774 C229.040689,29.2668872 228.234123,29.4569401 227.501723,29.3858634 C225.856143,29.2282585 224.437699,28.4309632 223.280384,27.0140642 C221.761506,25.1521633 220.979662,22.4790606 221.242337,20.039275 C221.676523,15.9940827 224.593759,12.2316521 228.676034,10.453189 C233.464442,8.36878702 239.451883,9.16453723 243.929716,12.4835109 C247.702963,15.2817704 250.729904,19.2466151 251.154819,24.9296622 C251.687894,32.0187923 249.464429,38.2287342 244.782637,42.850266 C239.550772,48.0125989 231.883758,50.4415684 224.270823,49.347605 C212.833652,47.7020245 203.381994,38.2565468 201.283685,26.3759189 C199.030863,13.616103 205.583827,0.0589916428 217.220322,-6.58977175 C227.903461,-12.6946437 241.866946,-12.5154068 252.792674,-6.13240852 C257.435838,-3.42067723 261.445492,0.307760155 264.518787,4.7160618 C271.335971,14.4891105 271.733074,25.1784308 271.726893,36.6217823 C271.726893,39.5359277 271.725348,43.6104778 271.723803,46.5246232 L271.723803,54.1607349 L271.723803,54.1607349 C271.723803,54.1653704 271.723803,54.1684607 271.723803,54.1730961 C271.723803,56.6978647 273.771121,58.7451832 276.29589,58.7451832 C278.820659,58.7451832 280.867977,56.6978647 280.867977,54.1730961 C280.867977,54.1684607 280.866432,54.1653704 280.866432,54.1607349 L280.867977,54.1607349 L280.867977,46.5246232 C280.897335,30.1584364 281.668363,12.6967411 271.461128,-1.31000775" id="Fill-1065" transform="translate(236.304029, 19.247395) rotate(-45.000000) translate(-236.304029, -19.247395) "></path>
            <path d="M215.242389,178.472789 C215.19912,178.42952 215.155741,178.386141 215.112252,178.342652 C187.479365,150.610451 159.247979,119.770758 118.291299,113.34408 C105.518962,111.3395 92.4173197,111.572105 79.7312292,114.075869 C77.480977,114.517557 75.2490196,115.029809 73.0301299,115.612627 C35.7663726,125.397696 6.46605115,154.03418 -3.44446699,190.3832 C-14.4317608,230.683883 0.60389604,273.407311 33.9421264,296.735709 C65.2208925,318.626664 107.779668,318.391446 137.367478,296.241752 C157.536114,281.148597 169.71518,257.537937 169.874605,233.156286 C170.020963,210.967388 159.548535,189.220178 142.526593,175.026079 C127.365486,162.18579 108.874739,159.114888 91.8109799,161.652629 C71.0229363,164.741825 52.8405854,178.852291 45.4573539,197.625301 C38.7353464,214.723036 41.4769428,234.541458 52.4302607,248.129218 C59.7612215,257.2217 71.0046416,263.337368 82.4989609,264.503004 C92.5845858,265.524895 102.272954,262.67353 109.773794,256.479457 C118.816619,249.015205 123.377235,236.185371 120.852562,225.292164 C118.769576,216.293769 112.227902,209.85141 102.913269,207.619452 C97.0432735,206.213371 91.1419154,209.830501 89.7358345,215.705724 C89.105973,218.332325 89.4823218,221.144487 90.7838614,223.512348 C91.4084958,224.644008 92.2709618,225.793962 93.2797856,226.614612 C94.6074605,227.691388 96.2409188,228.300341 97.4901877,229.51302 C98.9799017,230.966145 99.6855557,233.104015 98.9119498,235.095527 C98.2585665,236.815232 97.2157667,238.500961 95.8567294,239.619553 C92.8067361,242.136386 89.0589294,243.187026 84.704783,242.747953 C78.9863722,242.167748 73.1425118,238.968784 69.4600434,234.397714 C63.3522162,226.821081 61.9226135,215.522777 65.8193916,205.609645 C70.3930748,193.984649 81.8664859,185.203177 95.0543747,183.243027 C106.169732,181.593888 117.99597,183.180303 128.327267,192.074156 C141.219826,203.163378 147.962742,217.428042 147.860814,233.164126 C147.743205,250.745365 138.883328,267.822191 124.156068,278.848688 C102.027281,295.410648 70.0637696,295.421102 46.4191342,278.874823 C21.026045,261.102797 9.17889868,227.087661 17.6153841,196.159109 C25.3592831,167.76307 49.2809531,144.44774 78.5577527,136.763952 C90.9981711,133.497035 104.086746,133.021372 116.741474,135.279465 C144.80298,140.279154 163.555082,157.687899 182.900455,177.054181 C186.795838,180.949563 191.915414,186.072404 196.322985,190.483925 L196.322985,178.472789 L215.242388,178.472789 Z" id="Combined-Shape"></path>
            <path d="M150.83105,26 C150.337555,24.2714456 149.410286,22.6406861 148.049242,21.2796421 C148.044015,21.2744151 143.731685,16.9620852 135.112252,8.34265247 C107.479365,-19.389549 79.2479788,-50.2292415 38.291299,-56.6559198 C25.5189619,-58.6604999 12.4173197,-58.4278954 -0.268770819,-55.9241305 C-2.51902296,-55.4824434 -4.75098037,-54.9701909 -6.96987011,-54.387373 C-44.2336274,-44.6023044 -73.5339488,-15.9658204 -83.444467,20.3832002 C-94.4317608,60.6838832 -79.396104,103.407311 -46.0578736,126.735709 C-14.7791075,148.626664 27.7796682,148.391446 57.3674783,126.241752 C77.5361145,111.148597 89.7151795,87.5379375 89.874605,63.1562856 C90.0209629,40.9673882 79.5485351,19.2201779 62.5265929,5.02607876 C47.3654865,-7.81421018 28.8747386,-10.8851118 11.8109799,-8.34737096 C-8.97706366,-5.25817464 -27.1594146,8.85229146 -34.5426461,27.6253009 C-41.2646536,44.7230355 -38.5230572,64.5414583 -27.5697393,78.1292177 C-20.2387785,87.2217 -8.99535839,93.3373678 2.49896091,94.5030036 C12.5845858,95.5248951 22.2729536,92.6735303 29.7737941,86.4794565 C38.8166192,79.0152055 43.3772347,66.1853707 40.8525616,55.292164 C38.7695756,46.293769 32.2279018,39.8514095 22.9132692,37.6194521 C17.0432735,36.2133712 11.1419154,39.8305013 9.73583452,45.705724 C9.105973,48.332325 9.48232179,51.1444868 10.7838614,53.5123479 C11.4084958,54.6440078 12.2709618,55.7939624 13.2797856,56.6146119 C14.6074605,57.6913876 16.2409188,58.3003408 17.4901877,59.5130203 C18.9799017,60.9661448 19.6855557,63.104015 18.9119498,65.0955273 C18.2585665,66.8152322 17.2157667,68.5009612 15.8567294,69.6195534 C12.8067361,72.1363859 9.0589294,73.1870263 4.70478298,72.7479527 C-1.0136278,72.1677483 -6.85748818,68.9687836 -10.5399566,64.3977139 C-16.6477838,56.821081 -18.0773865,45.5227767 -14.1806084,35.609645 C-9.60692518,23.9846491 1.86648586,15.2031773 15.0543747,13.2430273 C26.1697317,11.5938879 37.9959697,13.1803025 48.3272667,22.0741562 C61.2198263,33.1633779 67.9627421,47.4280425 67.8608143,63.1641262 C67.7432053,80.7453645 58.8833276,97.8221909 44.1560676,108.848688 C22.0272815,125.410648 -9.93623037,125.421102 -33.5808658,108.874823 C-58.973955,91.1027968 -70.8211013,57.0876614 -62.3846159,26.1591087 C-54.6407169,-2.23693019 -30.7190469,-25.5522604 -1.44224726,-33.2360482 C10.9981711,-36.5029648 24.0867457,-36.9786279 36.7414738,-34.7205351 C64.8029804,-29.720846 83.5550816,-12.3121009 102.900455,7.05418057 C107.829579,11.9833043 114.718852,18.8778051 119.645362,23.8095423 L124,28.1641799 L124,26 L150.83105,26 Z" id="Combined-Shape"></path>
            <path d="M685.308952,180.731156 C682.362014,178.751272 679.357855,176.868665 676.29075,175.077613 C624.785144,144.995959 561.360176,144.269238 510.718623,173.212173 C454.572305,205.302323 424.261762,268.532736 435.219793,330.567208 C445.496881,388.773521 492.344609,435.10625 548.983037,443.248954 C587.585061,448.805219 626.765029,436.290747 653.630801,409.774029 C678.081802,385.643472 690.424607,350.371774 687.328892,316.19874 C684.788231,285.544864 667.907714,261.940751 646.449429,246.038731 C620.310376,226.66333 584.958567,222.205729 556.324632,234.674423 C530.248524,246.033009 511.554066,270.730064 508.670072,297.595837 C506.741688,315.575019 512.355175,334.578476 523.662261,348.437667 C533.584572,360.597362 547.312152,368.082012 562.30434,369.512564 C580.375077,371.240672 599.412868,362.188136 608.574125,347.499225 C616.144608,335.368141 616.035886,321.154173 608.282292,308.513813 C603.395526,300.548497 592.975382,298.047892 585.004345,302.940381 C581.439408,305.126265 578.772859,308.616813 577.605528,312.633803 C577.050474,314.556466 576.735752,316.759516 576.941752,318.76229 C577.216418,321.394506 578.337971,323.849334 578.378026,326.544494 C578.418082,329.766098 576.850196,332.87898 573.823148,334.212255 C571.225265,335.379586 568.238271,336.083417 565.525944,335.820196 C559.431791,335.23653 554.178803,332.28387 549.892868,327.036604 C544.267936,320.141342 541.372499,310.24192 542.345274,301.206551 C543.953215,286.225807 554.756746,272.292228 569.874823,265.705965 C587.60795,257.986704 609.781511,260.933642 626.364474,273.224948 C640.338109,283.587869 651.547917,298.271058 653.121525,319.317344 C655.095687,345.57084 646.861428,368.5684 629.523133,385.683528 C610.147733,404.801429 581.75413,413.796742 553.560804,409.745418 C511.205011,403.651265 476.202256,368.6714 468.431496,324.673332 C460.088515,277.419327 484.356405,227.212662 527.450363,202.589996 C567.013719,179.981547 618.725324,180.645323 659.187067,204.28377 C676.382306,214.326247 691.231439,228.133938 702.612913,244.459401 C727.859301,280.652375 729.329909,320.23862 729.30702,362.617302 C729.30702,373.409389 729.301298,388.498855 729.295576,399.290942 L729.295576,427.5701 C729.295576,436.965968 736.877503,444.547895 746.227593,444.547895 C755.577683,444.547895 763.15961,436.965968 763.15961,427.615878 C763.15961,427.604434 763.15961,418.162788 763.15961,399.290942 C763.268332,338.6813 766.123715,274.014613 728.3228,222.142785 C716.535049,205.966099 701.937693,191.87802 685.308952,180.731156 Z" id="Fill-1065"></path>
            <path d="M989.703319,391.168433 C987.784578,389.879337 985.82858,388.653578 983.831599,387.487431 C950.296476,367.901369 909.000696,367.428203 876.028155,386.272849 C839.47148,407.166635 819.73639,448.33574 826.871126,488.726172 C833.562503,526.624103 864.064898,556.791183 900.941984,562.09287 C926.075629,565.710535 951.585571,557.562406 969.077784,540.297461 C984.997746,524.586139 993.034105,501.620857 991.018495,479.370912 C989.36428,459.412279 978.373433,444.043721 964.402017,433.689971 C947.38297,421.074714 924.365528,418.172385 905.722071,426.290709 C888.744006,433.686245 876.572109,449.766413 874.694351,467.258626 C873.438786,478.964809 877.093709,491.337895 884.455713,500.361567 C890.916096,508.278702 899.854076,513.151932 909.615439,514.08336 C921.381234,515.208525 933.776674,509.31445 939.741537,499.75055 C944.670652,491.852043 944.599864,482.597377 939.551525,474.367282 C936.369768,469.181093 929.585249,467.552957 924.395334,470.73844 C922.074216,472.161661 920.338034,474.434345 919.577989,477.049794 C919.216596,478.301633 919.011681,479.736031 919.145807,481.04003 C919.324641,482.753857 920.05488,484.352187 920.08096,486.106997 C920.10704,488.204572 919.086196,490.231359 917.115295,491.09945 C915.423822,491.859495 913.479001,492.317757 911.713014,492.146374 C907.745132,491.766352 904.324929,489.843885 901.534372,486.427408 C897.871998,481.937927 895.986788,475.492447 896.620159,469.609549 C897.667084,459.855638 904.701226,450.783532 914.544554,446.495239 C926.090532,441.469255 940.527662,443.387996 951.324772,451.390823 C960.422958,458.138086 967.721625,467.69826 968.746196,481.401424 C970.031566,498.494986 964.670268,513.468618 953.381364,524.612219 C940.766107,537.059819 922.27913,542.916636 903.922552,540.278833 C876.344841,536.310951 853.554667,513.53568 848.495152,484.88869 C843.063066,454.121769 858.863805,421.432382 886.922134,405.400648 C912.681699,390.680365 946.350948,391.112547 972.695449,406.503459 C983.89121,413.042081 993.55943,422.032222 1000.96987,432.661675 C1017.40771,456.226796 1018.36521,482.001264 1018.35031,509.593878 C1018.35031,516.620569 1018.34658,526.445268 1018.34286,533.471959 L1018.34286,551.884422 C1018.34286,558.002039 1023.27943,562.938606 1029.36724,562.938606 C1035.45505,562.938606 1040.39162,558.002039 1040.39162,551.914228 C1040.39162,551.906776 1040.39162,545.759354 1040.39162,533.471959 C1040.4624,494.00923 1042.32153,451.904971 1017.70949,418.131402 C1010.03452,407.598818 1000.53024,398.426118 989.703319,391.168433 Z" id="Fill-1065" transform="translate(932.937445, 467.700141) rotate(-134.000000) translate(-932.937445, -467.700141) "></path>
            <path d="M693.670457,-40.342016 C691.361057,-41.8935742 689.006814,-43.3688998 686.603244,-44.772477 C646.240309,-68.3462965 596.536635,-68.9157991 556.850825,-46.2343498 C512.851145,-21.0865507 489.097955,28.4646583 497.685336,77.0786543 C505.739089,122.692672 542.451827,159.001825 586.837154,165.382945 C617.088055,169.737173 647.791867,159.930069 668.845526,139.149952 C688.006822,120.239775 697.679397,92.5987208 695.253406,65.8186466 C693.262389,41.7963998 680.033785,23.2987766 663.217764,10.8369838 C642.733608,-4.34676217 615.029774,-7.8400103 592.590475,1.93121905 C572.155647,10.8324996 557.505529,30.1866188 555.245456,51.2402773 C553.734256,65.3298609 558.133327,80.2221292 566.994249,91.0830367 C574.769977,100.612115 585.527747,106.477544 597.27654,107.598612 C611.437872,108.952862 626.357046,101.858743 633.536366,90.3476161 C639.469058,80.8409588 639.383857,69.7020264 633.307668,59.7962689 C629.478099,53.5541618 621.31224,51.5945348 615.065648,55.4285876 C612.271947,57.1415797 610.182276,59.8769858 609.267484,63.0249449 C608.83251,64.5316604 608.585875,66.2581053 608.747309,67.8276006 C608.962554,69.8903658 609.841471,71.8141186 609.872861,73.9262109 C609.904251,76.4508562 608.67556,78.8903003 606.30338,79.9351358 C604.26752,80.8499273 601.92673,81.4014928 599.801185,81.1952163 C595.025435,80.7378205 590.908873,78.423936 587.550153,74.3118583 C583.142114,68.9083102 580.873072,61.1505191 581.635398,54.0698531 C582.895479,42.3300282 591.361785,31.4108252 603.209232,26.2494278 C617.105992,20.2001444 634.482547,22.5095447 647.477968,32.1417616 C658.428561,40.2627787 667.213251,51.7694214 668.446426,68.262575 C669.9935,88.8364163 663.540632,106.858707 649.953287,120.271165 C634.769541,135.253119 612.518582,142.302395 590.424572,139.12753 C557.231988,134.35178 529.801695,106.939424 523.712053,72.4598539 C517.173984,35.4287332 536.191783,-3.91627203 569.962837,-23.2120958 C600.967096,-40.9294556 641.491465,-40.40928 673.199754,-21.8847512 C686.674993,-14.0148533 698.311679,-3.19430419 707.230897,9.59932469 C727.015506,37.962347 728.167964,68.9845428 728.150027,102.195064 C728.150027,110.652401 728.145543,122.477427 728.141059,130.934765 L728.141059,153.096038 C728.141059,160.459214 734.082719,166.400874 741.41002,166.400874 C748.737321,166.400874 754.678982,160.459214 754.678982,153.131913 C754.678982,153.122944 754.678982,145.723895 754.678982,130.934765 C754.764183,83.4373525 757.001835,32.7605911 727.378732,-7.88933729 C718.141131,-20.5663751 706.701753,-31.6066535 693.670457,-40.342016 Z" id="Fill-1065" transform="translate(625.346948, 51.771686) rotate(-134.000000) translate(-625.346948, -51.771686) "></path>
            <path d="M34.0820579,559.284114 C-1.75642606,593.721668 -41.2380776,628.972284 -50.2937619,680.764033 C-53.1413913,697.04726 -53.1363872,713.801386 -50.2186941,730.074956 C-49.7042609,732.961499 -49.0992098,735.826229 -48.4036574,738.675829 C-36.7260921,786.531583 -0.771472167,824.627661 45.4754042,838.108215 C96.7499966,853.053482 151.702472,834.785474 182.269052,792.686956 C210.952071,753.189149 211.601041,698.777424 183.945447,660.458573 C165.100641,634.338509 135.188909,618.242127 104.023342,617.494261 C75.6606666,616.81203 47.6256866,629.714545 29.1003386,651.1584 C12.3472038,670.253601 8.00880322,693.82336 10.872246,715.694032 C14.3575562,742.338077 31.9904304,765.896976 55.8248021,775.754491 C77.5322832,784.729324 102.929023,781.666744 120.543819,767.967394 C132.331092,758.7985 140.400155,744.561553 142.146774,729.893405 C143.678197,717.022901 140.249246,704.573817 132.498214,694.846642 C123.157816,683.119876 106.858122,677.003368 92.8760795,679.987796 C81.3261909,682.449861 72.944406,690.668878 69.8832571,702.526755 C67.9547604,709.99949 72.4471586,717.624408 79.9265763,719.553022 C83.2703271,720.416837 86.8737489,719.99847 89.9298287,718.38744 C91.3904634,717.614169 92.8797928,716.537266 93.9514095,715.265914 C95.3575689,713.592662 96.1724947,711.518063 97.7506418,709.948077 C99.6415354,708.076075 102.390302,707.221683 104.918958,708.255088 C107.102822,709.128737 109.234562,710.499452 110.634227,712.261785 C113.783648,716.21701 115.043141,721.031592 114.384676,726.588068 C113.51535,733.885448 109.295442,741.284766 103.369686,745.890376 C93.5475441,753.52946 79.0720671,755.104928 66.4862277,749.902143 C51.7270722,743.795814 40.7569962,728.932432 38.5454493,712.029501 C36.6852463,697.783002 38.9771882,682.699923 50.5774878,669.691014 C65.0414645,653.456814 83.427653,645.155081 103.542143,645.636523 C126.0151,646.179186 147.648148,657.886573 161.415621,676.959721 C182.094386,705.618385 181.394507,746.480275 159.714388,776.33799 C136.428278,808.403551 92.6794976,822.789735 53.3291712,811.314515 C17.2009164,800.781197 -12.0712441,769.679842 -21.240788,732.081378 C-25.1395643,716.104842 -25.4555824,699.361998 -22.2864906,683.234778 C-15.2687934,647.472949 7.40471515,623.889018 32.5939462,599.590339 C37.4184769,594.931344 43.6905125,588.87823 49.2329462,583.530604 L34.0820574,559.284114 Z" id="Combined-Shape"></path>
            <path d="M549.366866,186.971868 C546.020474,148.043303 536.946026,110.233027 512.839687,77.1534074 C499.873775,59.3598962 483.817444,43.8637432 465.526697,31.602774 C462.285219,29.4250043 458.980799,27.3542349 455.607144,25.3841716 C398.953662,-7.70408046 329.189503,-8.50343523 273.486434,23.3322845 C211.728411,58.6297769 178.388394,128.179936 190.441657,196.414621 C201.745918,260.438532 253.275977,311.402119 315.575295,320.358669 C358.03551,326.470271 401.131432,312.705004 430.682382,283.537996 C457.577208,256.995642 471.153651,218.198612 467.748525,180.610055 C464.95393,146.89239 446.386241,120.929096 422.783246,103.437703 C394.031651,82.1257717 355.146503,77.2226429 323.650667,90.9375565 C294.968307,103.431409 274.405378,130.596882 271.233135,160.147832 C269.112013,179.923995 275.286556,200.826807 287.723761,216.071195 C298.637786,229.446226 313.737409,237.67895 330.228035,239.252483 C350.104904,241.153311 371.045481,231.195994 381.122386,215.038958 C389.449523,201.695398 389.329934,186.060774 380.801385,172.157036 C375.426197,163.395604 363.964582,160.645069 355.196856,166.026552 C351.275612,168.43091 348.342547,172.27033 347.058544,176.688811 C346.448013,178.80364 346.101836,181.22688 346.328424,183.429827 C346.630543,186.325127 347.864193,189.02531 347.908251,191.989846 C347.95231,195.533442 346.227718,198.95745 342.898122,200.423983 C340.040586,201.707986 336.75505,202.482164 333.771631,202.192634 C327.06838,201.550633 321.290367,198.302861 316.576062,192.531141 C310.38893,184.946712 307.2041,174.057864 308.274102,164.11943 C310.042753,147.641392 321.926074,132.31518 338.555171,125.070634 C358.060686,116.57985 382.450448,119.821328 400.690843,133.341124 C416.061113,144.739797 428.391318,160.89054 430.122204,184.040357 C432.293679,212.917835 423.236423,238.213952 404.165203,257.039701 C382.853272,278.068396 351.621789,287.962771 320.610601,283.506526 C274.021436,276.803275 235.52023,238.327246 226.972799,189.931665 C217.795954,137.954723 244.489368,82.7300084 291.890476,55.6463583 C335.408105,30.7782427 392.288176,31.508362 436.793984,57.5094214 C455.707851,68.5556231 472.041123,83.7433636 484.560152,101.700522 C503.254169,128.500082 510.096792,156.991069 512.564991,186.971868 L549.366866,186.971868 Z" id="Combined-Shape"></path>
            <path d="M974.502872,580.65422 C942.630788,536.915199 903.162007,498.823417 858.200708,468.684183 C850.232686,463.330911 842.109946,458.240661 833.817016,453.39796 C694.554573,372.062257 523.064192,370.097328 386.138004,448.354126 C234.327862,535.12046 152.373284,706.084797 182.001945,873.815509 C209.789451,1031.19553 336.457779,1156.47139 489.598503,1178.48788 C593.971844,1193.51108 699.907845,1159.67407 772.548349,1087.97735 C838.659716,1022.73241 872.032573,927.363706 863.662283,834.965605 C856.792766,752.082713 811.150703,688.261185 753.131132,645.264814 C682.455558,592.87701 586.870249,580.824411 509.448933,614.53765 C438.94355,645.249343 388.396899,712.026001 380.599069,784.666504 C375.385044,833.279169 390.562963,884.661301 421.135409,922.134208 C447.963659,955.011965 485.080713,975.249192 525.617053,979.117163 C574.477268,983.789673 625.952232,959.31315 650.722721,919.596819 C671.192026,886.796422 670.89806,848.364258 649.933655,814.186862 C636.720664,792.649997 608.54636,785.888783 586.994024,799.117245 C577.355039,805.027506 570.14514,814.465356 566.988876,825.32662 C565.488103,830.525173 564.637149,836.481849 565.194137,841.897009 C565.936787,849.014077 568.969277,855.651516 569.07758,862.938774 C569.185883,871.649445 564.946587,880.066151 556.761959,883.671101 C549.737723,886.827365 541.661399,888.730407 534.327725,888.018701 C517.850167,886.440568 503.646976,878.457075 492.058533,864.269356 C476.84967,845.625734 469.020896,818.859372 471.651116,794.429264 C475.998716,753.923867 505.209636,716.249826 546.086358,698.441685 C594.033732,677.570112 653.987289,685.538133 698.824813,718.771743 C736.607158,746.791328 766.916582,786.492187 771.171351,843.397782 C776.509151,914.382794 754.245108,976.564302 707.365294,1022.84071 C654.977489,1074.53228 578.205993,1098.85409 501.976012,1087.89999 C387.453114,1071.42243 292.81159,976.842796 271.800769,857.879467 C249.24276,730.112635 314.859027,594.362311 431.377798,527.786787 C538.350415,466.657366 678.169846,468.452105 787.571549,532.366465 C834.064566,559.519624 874.214109,596.853284 904.98769,640.994574 C973.249649,738.854251 977.225924,845.888756 977.164036,960.473541 C977.164036,989.653517 977.148565,1030.45288 977.133093,1059.63286 L977.133093,1136.09492 L977.133093,1136.09492 C977.133093,1136.14133 977.133093,1136.17227 977.133093,1136.21869 C977.133093,1161.49975 997.633341,1182 1022.9144,1182 C1048.19546,1182 1068.69571,1161.49975 1068.69571,1136.21869 C1068.69571,1136.17227 1068.68024,1136.14133 1068.68024,1136.09492 L1068.69571,1136.09492 L1068.69571,1059.63286 C1068.98968,895.754643 1076.71015,720.906863 974.502872,580.65422" id="Fill-1065"></path>
            <path d="M314.313068,333.601445 C284.842103,310.093885 252.182807,291.553391 213.059246,285.414355 C190.116451,281.813552 166.582129,282.231377 143.794259,286.728859 C139.752158,287.522256 135.74292,288.442409 131.757155,289.489318 C64.8207181,307.066119 12.1889049,358.505489 -5.61323903,423.798795 C-25.3495821,496.190425 1.65878654,572.934002 61.5438467,614.838522 C117.729516,654.160979 194.17733,653.73846 247.325556,613.951231 C283.554233,586.83958 305.431341,544.428038 305.717715,500.631571 C305.980616,460.773923 287.16912,421.709672 256.592811,396.212983 C229.359099,373.148128 196.144392,367.631904 165.492969,372.190417 C128.151657,377.739503 95.4909202,403.085963 82.2285107,436.807693 C70.1538498,467.520147 75.0785463,503.11974 94.7538589,527.527268 C107.922375,543.859984 128.118795,554.845484 148.765902,556.939302 C166.882588,558.774913 184.285686,553.653041 197.759355,542.526701 C214.002872,529.118757 222.195051,506.07268 217.660011,486.505345 C213.918368,470.341637 202.167639,458.769304 185.435877,454.760066 C174.891675,452.23434 164.291136,458.731747 161.76541,469.285338 C160.633998,474.00347 161.310028,479.054922 163.647968,483.308283 C164.769991,485.34107 166.319229,487.406719 168.131367,488.880842 C170.516253,490.815041 173.450414,491.908896 175.694461,494.087218 C178.370416,496.697448 179.637974,500.537678 178.248355,504.115008 C177.074691,507.204093 175.201522,510.232147 172.7603,512.241461 C167.281634,516.762417 160.549494,518.64967 152.728193,517.860967 C142.456281,516.818753 131.959025,511.072491 125.344252,502.861534 C114.372836,489.25172 111.804857,468.956712 118.804593,451.149874 C127.020245,430.268034 147.629794,414.493982 171.31904,410.972989 C191.285421,408.010659 212.528749,410.860317 231.086733,426.836239 C254.245482,446.755674 266.3577,472.379118 266.174609,500.645655 C265.963349,532.226621 250.048458,562.901518 223.594059,582.708281 C183.844388,612.45833 126.428718,612.477109 83.956145,582.755227 C38.3428458,550.831552 17.0619601,489.730575 32.2163168,434.17399 C46.1265891,383.166528 89.0967957,341.285482 141.686357,327.483187 C164.03293,321.614864 187.543778,320.760437 210.275313,324.816621 C240.795611,330.254391 265.185329,343.863972 287.392985,361.478007 L314.313068,333.601445 Z" id="Combined-Shape"></path>
            <path d="M53.4801848,293.775446 C41.2492339,281.736818 27.9842614,270.49601 10.3059487,267.722034 C3.44470401,266.645182 -3.59344205,266.770136 -10.4083555,268.115148 C-11.6171813,268.352421 -12.8161792,268.6276 -14.0081573,268.940688 C-34.026088,274.197185 -49.766095,289.580581 -55.0899829,309.107119 C-60.9923101,330.756473 -52.9152196,353.707316 -35.0060652,366.239231 C-18.2032461,377.998958 4.65914573,377.8726 20.5535905,365.973879 C31.3880954,357.865901 37.9306369,345.182356 38.0162796,332.084637 C38.0949024,320.164857 32.4691591,308.482349 23.3250448,300.857339 C15.1805634,293.959591 5.24741288,292.309916 -3.91916514,293.673179 C-15.0864131,295.332682 -24.853894,302.912764 -28.8201343,312.997545 C-32.431168,322.182374 -30.9583941,332.828746 -25.0743187,340.128032 C-21.136158,345.012475 -15.0962409,348.297785 -8.92154185,348.92396 C-3.5035874,349.472916 1.70096226,347.941175 5.73038161,344.613745 C10.5881485,340.603981 13.0380916,333.711849 11.681848,327.860065 C10.5628769,323.026166 7.04871776,319.565358 2.04493708,318.36636 C-1.10839945,317.611019 -4.27858373,319.554126 -5.03392436,322.71027 C-5.37228327,324.121269 -5.17011031,325.63195 -4.47092884,326.903955 C-4.13537789,327.511878 -3.67206486,328.129629 -3.13012902,328.570478 C-2.41690776,329.148917 -1.53942096,329.476045 -0.868319066,330.127491 C-0.068051112,330.908103 0.311023182,332.056558 -0.104554562,333.12639 C-0.455549279,334.050208 -1.01573685,334.955774 -1.74580586,335.556677 C-3.3842492,336.908709 -5.39755489,337.473108 -7.73658368,337.23724 C-10.8084894,336.925556 -13.9477862,335.207086 -15.9259924,332.751527 C-19.207091,328.681393 -19.9750675,322.611992 -17.881735,317.2867 C-15.424772,311.041802 -9.26130473,306.324433 -2.17682737,305.271449 C3.79429475,304.385538 10.1472991,305.237753 15.6972276,310.015493 C22.6230553,315.972576 26.2453208,323.635492 26.1905656,332.088849 C26.1273866,341.533415 21.3678982,350.707013 13.4564773,356.6304 C1.56898825,365.527414 -15.6016733,365.53303 -28.3034701,356.64444 C-41.9445288,347.097383 -48.308765,328.824598 -43.7767212,312.209912 C-39.6167318,296.955682 -26.7661132,284.430787 -11.038742,280.303089 C-4.35580257,278.548115 2.67532359,278.292591 9.47338927,279.505629 C23.3296176,281.974378 32.9605464,290.075279 42.4975038,299.44803 L42.4975038,293.775446 L53.4801848,293.775446 Z" id="Combined-Shape"></path>
            <path d="M138.06396,16.2700599 C136.687209,16.5402932 135.321651,16.8536999 133.964089,17.2102799 C111.165351,23.1969873 93.2388086,40.7173805 87.1753486,62.9564631 C80.453095,87.6132545 89.6522209,113.752332 110.04924,128.025128 C129.186236,141.418467 155.224575,141.274556 173.327009,127.722914 C185.666598,118.48861 193.118002,104.04312 193.215542,89.1259215 C193.305087,75.5502951 186.897839,62.244902 176.483462,53.5606586 C167.207584,45.7047042 155.894562,43.8258631 145.454601,45.3785054 C132.736046,47.2685396 121.611708,55.9016147 117.094494,67.3873301 C112.981831,77.8480778 114.659196,89.9733988 121.360663,98.286671 C125.845896,103.84964 132.724853,107.591332 139.757315,108.304492 C145.927909,108.929706 151.855453,107.185182 156.444622,103.39552 C161.97721,98.8287367 164.767489,90.9791784 163.222842,84.3144892 C161.948428,78.809085 157.946096,74.8675162 152.247212,73.5019585 C148.655827,72.6416892 145.045254,74.8547241 144.184984,78.449307 C143.799622,80.0563157 144.02988,81.7768545 144.826189,83.2255609 C145.208353,83.9179338 145.736028,84.6214999 146.353247,85.1235902 C147.165546,85.7823838 148.16493,86.154954 148.929258,86.8968964 C149.840696,87.785948 150.27243,89.0939412 149.799122,90.3123897 C149.399368,91.3645407 148.761362,92.3959045 147.929874,93.0802824 C146.063826,94.6201326 143.77084,95.2629361 141.106883,94.9943018 C137.608241,94.6393208 134.032846,92.682128 131.779836,89.885453 C128.042941,85.2499123 127.168281,78.337376 129.55241,72.272317 C132.350684,65.159904 139.370354,59.787218 147.438977,58.5879577 C154.239583,57.57898 161.47512,58.5495814 167.796021,63.991025 C175.683955,70.7756402 179.809411,79.503057 179.747049,89.1307185 C179.675094,99.8872837 174.254437,110.335239 165.243995,117.081478 C151.705146,127.214428 132.149208,127.220824 117.682931,117.097468 C102.146914,106.224175 94.8985849,85.4130117 100.060201,66.4902834 C104.798079,49.1169995 119.433851,34.8521982 137.346003,30.1510979 C144.957308,28.1523308 152.965169,27.8613103 160.707593,29.2428581 C177.876203,32.3017713 189.349127,42.9528016 201.185026,54.8014932 C204.200766,57.8172331 208.415766,62.0354312 211.429907,65.0527701 L219.332233,72.9550959 C221.957813,75.5806764 226.195199,75.5806764 228.807988,72.967888 C231.420776,70.3550996 231.420776,66.1177132 228.807988,63.5049248 C228.80479,63.5017268 226.166417,60.8633542 220.89287,55.589807 C203.986498,38.6226725 186.713952,19.7543108 161.655808,15.822336 C153.841428,14.5958925 145.825572,14.7382047 138.06396,16.2700599 Z" id="Combined-Shape"></path>
            <path d="M1507.82118,515.034905 C1500.08484,504.418101 1490.50456,495.172056 1479.59107,487.856338 C1477.65699,486.556934 1475.68535,485.321374 1473.6724,484.145902 C1439.86913,464.403228 1398.24314,463.926279 1365.00695,482.921608 C1328.15796,503.982463 1308.26507,545.48076 1315.45686,586.194157 C1322.20174,624.395122 1352.94803,654.803422 1390.11999,660.147501 C1415.45461,663.794093 1441.16853,655.580811 1458.80061,638.177815 C1474.84787,622.340863 1482.94849,599.191949 1480.91676,576.764091 C1479.24932,556.645867 1468.17059,541.154422 1454.08746,530.717882 C1436.93232,518.001752 1413.73083,515.076216 1394.9383,523.259455 C1377.82448,530.714126 1365.55525,546.922873 1363.66248,564.554954 C1362.39688,576.354741 1366.08102,588.826763 1373.50189,597.922589 C1380.01393,605.903031 1389.02338,610.815227 1398.8628,611.754103 C1410.72267,612.888264 1423.21723,606.94706 1429.22979,597.306687 C1434.19832,589.345023 1434.12696,580.016356 1429.03826,571.720452 C1425.83106,566.492793 1418.99229,564.851639 1413.76088,568.062593 C1411.4212,569.497195 1409.67113,571.788051 1408.90501,574.424413 C1408.54073,575.686262 1408.33418,577.13213 1408.46937,578.446556 C1408.64964,580.174087 1409.38572,581.785197 1409.412,583.554039 C1409.43829,585.668386 1408.40929,587.711379 1406.42262,588.586411 C1404.71763,589.352534 1402.75725,589.81446 1400.97715,589.641707 C1396.97754,589.258646 1393.52999,587.320807 1390.71712,583.877012 C1387.02546,579.351632 1385.12517,572.854614 1385.76361,566.924676 C1386.8189,557.092772 1393.90929,547.948125 1403.83133,543.625542 C1415.46963,538.55937 1430.0222,540.493453 1440.90564,548.560271 C1450.07658,555.361485 1457.43361,564.998103 1458.46637,578.81084 C1459.76202,596.041083 1454.35785,611.134445 1442.97868,622.367151 C1430.26255,634.914283 1411.62775,640.817932 1393.12439,638.159037 C1365.32617,634.159428 1342.35376,611.202044 1337.25379,582.32599 C1331.77827,551.313054 1347.70535,518.36228 1375.98804,502.202355 C1401.95358,487.364367 1435.89205,487.800005 1462.4472,503.313984 C1473.73249,509.90489 1483.47801,518.966916 1490.94771,529.681363 C1507.51698,553.434913 1508.48215,579.415476 1508.46712,607.228723 C1508.46712,614.3116 1508.46337,624.214858 1508.45961,631.297735 L1508.45961,649.857426 L1508.45961,649.857426 C1508.45961,649.868692 1508.45961,649.876203 1508.45961,649.88747 C1508.45961,656.02396 1513.43565,661 1519.57214,661 C1525.70863,661 1530.68467,656.02396 1530.68467,649.88747 C1530.68467,649.876203 1530.68092,649.868692 1530.68092,649.857426 L1530.68467,649.857426 L1530.68467,631.297735 C1530.75603,591.519458 1532.63002,549.078531 1507.82118,515.034905" id="Fill-1065" transform="translate(1422.371290, 565.000000) scale(-1, 1) rotate(-180.000000) translate(-1422.371290, -565.000000) "></path>
            <path d="M1250.48371,686.431545 C1249.99012,686.099926 1249.48694,685.784601 1248.97322,685.484611 C1240.34634,680.446116 1229.72305,680.324395 1221.24089,685.172161 C1211.83672,690.547067 1206.75989,701.137778 1208.5953,711.528176 C1210.31665,721.277381 1218.16336,729.037832 1227.64995,730.401686 C1234.11555,731.332326 1240.67796,729.236228 1245.17782,724.794838 C1249.27321,720.753116 1251.34056,714.845321 1250.82204,709.121544 C1250.3965,703.987206 1247.56911,700.03366 1243.97498,697.370168 C1239.59685,694.124906 1233.67563,693.378285 1228.87962,695.466715 C1224.51203,697.36921 1221.38082,701.505817 1220.89777,706.005671 C1220.57478,709.017075 1221.515,712.200039 1223.40887,714.521369 C1225.0708,716.558045 1227.37009,717.811678 1229.88119,718.051287 C1232.90793,718.340735 1236.09664,716.82449 1237.6311,714.364186 C1238.89911,712.332303 1238.8809,709.95155 1237.58222,707.834366 C1236.76371,706.500224 1235.0184,706.081387 1233.6833,706.90085 C1233.08619,707.266972 1232.63956,707.851618 1232.44404,708.524439 C1232.35107,708.846474 1232.29836,709.215471 1232.33286,709.550924 C1232.37887,709.991804 1232.56672,710.402973 1232.57343,710.854396 C1232.58014,711.393995 1232.31753,711.915384 1231.81052,712.138699 C1231.37539,712.33422 1230.87508,712.452107 1230.42079,712.408019 C1229.40005,712.310259 1228.52021,711.815706 1227.80234,710.936821 C1226.8602,709.781906 1226.37523,708.123813 1226.53816,706.610444 C1226.80748,704.10126 1228.61701,701.76747 1231.1492,700.664311 C1234.11939,699.371381 1237.83333,699.864975 1240.61087,701.923695 C1242.95137,703.659421 1244.82895,706.118766 1245.09252,709.643892 C1245.42318,714.041193 1244.04399,717.893145 1241.13993,720.759825 C1237.89467,723.961958 1233.13891,725.468619 1228.4167,724.790046 C1221.32236,723.769313 1215.45961,717.910397 1214.15805,710.540987 C1212.76066,702.626228 1216.82538,694.216916 1224.04336,690.092768 C1230.66998,686.30599 1239.33136,686.417168 1246.10846,690.376465 C1248.98855,692.058519 1251.47569,694.371224 1253.38202,697.10564 C1257.61064,703.167744 1257.85696,709.7982 1257.85312,716.896372 C1257.85312,718.703982 1257.85217,721.231376 1257.85121,723.038985 L1257.85121,727.775573 C1257.85121,729.349323 1259.12113,730.61925 1260.68722,730.61925 C1262.2533,730.61925 1263.52323,729.349323 1263.52323,727.78324 C1263.52323,727.781323 1263.52323,726.199905 1263.52323,723.038985 C1263.54144,712.887237 1264.0197,702.055959 1257.68827,693.367742 C1255.7139,690.658245 1253.26893,688.298577 1250.48371,686.431545 Z" id="Fill-1065" transform="translate(1235.880750, 706.119250) scale(-1, 1) rotate(-225.000000) translate(-1235.880750, -706.119250) "></path>
            <path d="M1011.05331,559.176514 C1010.56378,558.847628 1010.06475,558.534902 1009.55526,558.237384 C1000.9995,553.24042 990.46376,553.119702 982.051522,557.92751 C972.724868,563.258113 967.689881,573.761529 969.510157,584.066284 C971.217318,593.735131 978.999352,601.431617 988.407752,602.784228 C994.820064,603.707198 1001.32838,601.628377 1005.79114,597.223596 C1009.85278,593.215188 1011.90309,587.356088 1011.38885,581.67949 C1010.96681,576.587471 1008.16273,572.666513 1004.59822,570.024975 C1000.25618,566.806462 994.383768,566.065994 989.627289,568.137211 C985.295699,570.024024 982.1903,574.126535 981.71123,578.589299 C981.390899,581.575881 982.323375,584.73261 984.201633,587.034807 C985.849861,589.054694 988.130196,590.297995 990.620599,590.535629 C993.62239,590.82269 996.784821,589.318943 998.306628,586.878919 C999.564187,584.863784 999.546127,582.502654 998.258151,580.402921 C997.446394,579.079775 995.715469,578.664391 994.391373,579.477099 C993.799189,579.840204 993.35624,580.42003 993.16233,581.087306 C993.070128,581.406686 993.017849,581.772642 993.052068,582.10533 C993.097694,582.542576 993.283999,582.950356 993.290653,583.398058 C993.297306,583.933209 993.03686,584.450301 992.534026,584.671775 C992.102483,584.865685 991.606304,584.9826 991.15575,584.938876 C990.14343,584.841921 989.270838,584.351445 988.558887,583.479804 C987.624511,582.334409 987.14354,580.689982 987.305131,579.189087 C987.572231,576.700585 989.366842,574.386031 991.878157,573.291965 C994.823866,572.009693 998.507191,572.499218 1001.26184,574.540969 C1003.58305,576.262388 1005.44515,578.701462 1005.70655,582.197532 C1006.03448,586.558588 1004.66666,590.37879 1001.78654,593.221842 C998.568026,596.397581 993.851469,597.891822 989.16818,597.218843 C982.132317,596.206523 976.317892,590.3959 975.027065,583.087233 C973.641184,575.237711 977.672405,566.897713 984.830887,562.807559 C991.402889,559.051993 999.992878,559.162255 1006.71411,563.088917 C1009.57047,564.757107 1012.03711,567.050749 1013.92773,569.762627 C1018.12149,575.774764 1018.36578,582.350568 1018.36198,589.390233 C1018.36198,591.182943 1018.36103,593.689505 1018.36007,595.482215 L1018.36007,600.179761 C1018.36007,601.740541 1019.61953,603 1021.17271,603 C1022.72588,603 1023.98534,601.740541 1023.98534,600.187366 C1023.98534,600.185465 1023.98534,598.617081 1023.98534,595.482215 C1024.0034,585.414144 1024.47772,574.672142 1018.19848,566.055539 C1016.24038,563.368375 1013.81556,561.028157 1011.05331,559.176514 Z" id="Fill-1065" transform="translate(996.570710, 578.701942) rotate(-360.000000) translate(-996.570710, -578.701942) "></path>
            <path d="M1051.05331,529.176514 C1050.56378,528.847628 1050.06475,528.534902 1049.55526,528.237384 C1040.9995,523.24042 1030.46376,523.119702 1022.05152,527.92751 C1012.72487,533.258113 1007.68988,543.761529 1009.51016,554.066284 C1011.21732,563.735131 1018.99935,571.431617 1028.40775,572.784228 C1034.82006,573.707198 1041.32838,571.628377 1045.79114,567.223596 C1049.85278,563.215188 1051.90309,557.356088 1051.38885,551.67949 C1050.96681,546.587471 1048.16273,542.666513 1044.59822,540.024975 C1040.25618,536.806462 1034.38377,536.065994 1029.62729,538.137211 C1025.2957,540.024024 1022.1903,544.126535 1021.71123,548.589299 C1021.3909,551.575881 1022.32337,554.73261 1024.20163,557.034807 C1025.84986,559.054694 1028.1302,560.297995 1030.6206,560.535629 C1033.62239,560.82269 1036.78482,559.318943 1038.30663,556.878919 C1039.56419,554.863784 1039.54613,552.502654 1038.25815,550.402921 C1037.44639,549.079775 1035.71547,548.664391 1034.39137,549.477099 C1033.79919,549.840204 1033.35624,550.42003 1033.16233,551.087306 C1033.07013,551.406686 1033.01785,551.772642 1033.05207,552.10533 C1033.09769,552.542576 1033.284,552.950356 1033.29065,553.398058 C1033.29731,553.933209 1033.03686,554.450301 1032.53403,554.671775 C1032.10248,554.865685 1031.6063,554.9826 1031.15575,554.938876 C1030.14343,554.841921 1029.27084,554.351445 1028.55889,553.479804 C1027.62451,552.334409 1027.14354,550.689982 1027.30513,549.189087 C1027.57223,546.700585 1029.36684,544.386031 1031.87816,543.291965 C1034.82387,542.009693 1038.50719,542.499218 1041.26184,544.540969 C1043.58305,546.262388 1045.44515,548.701462 1045.70655,552.197532 C1046.03448,556.558588 1044.66666,560.37879 1041.78654,563.221842 C1038.56803,566.397581 1033.85147,567.891822 1029.16818,567.218843 C1022.13232,566.206523 1016.31789,560.3959 1015.02706,553.087233 C1013.64118,545.237711 1017.6724,536.897713 1024.83089,532.807559 C1031.40289,529.051993 1039.99288,529.162255 1046.71411,533.088917 C1049.57047,534.757107 1052.03711,537.050749 1053.92773,539.762627 C1058.12149,545.774764 1058.36578,552.350568 1058.36198,559.390233 C1058.36198,561.182943 1058.36103,563.689505 1058.36007,565.482215 L1058.36007,570.179761 C1058.36007,571.740541 1059.61953,573 1061.17271,573 C1062.72588,573 1063.98534,571.740541 1063.98534,570.187366 C1063.98534,570.185465 1063.98534,568.617081 1063.98534,565.482215 C1064.0034,555.414144 1064.47772,544.672142 1058.19848,536.055539 C1056.24038,533.368375 1053.81556,531.028157 1051.05331,529.176514 Z" id="Fill-1065" transform="translate(1036.570710, 548.701942) rotate(-360.000000) translate(-1036.570710, -548.701942) "></path>
            <path d="M1062.94192,568.339143 C1062.59943,568.10904 1062.25028,567.890243 1061.89382,567.682087 C1055.90783,564.185988 1048.53656,564.101529 1042.65098,567.465285 C1036.12564,571.194811 1032.60294,578.543468 1033.87649,585.753132 C1035.07089,592.517886 1040.51555,597.902689 1047.09808,598.849037 C1051.58442,599.494787 1056.13793,598.040352 1059.26028,594.958571 C1062.10198,592.154111 1063.53646,588.054824 1063.17668,584.083224 C1062.8814,580.520622 1060.91954,577.777345 1058.42566,575.929208 C1055.38777,573.677394 1051.27917,573.15933 1047.95133,574.608445 C1044.92075,575.928543 1042.74808,578.798842 1042.4129,581.92119 C1042.18878,584.010735 1042.84118,586.219323 1044.1553,587.830042 C1045.30847,589.243245 1046.90389,590.113113 1048.64629,590.279372 C1050.74648,590.480213 1052.95905,589.428125 1054.02378,587.720976 C1054.90362,586.311098 1054.89098,584.659146 1053.98986,583.19008 C1053.42192,582.264349 1052.21089,581.973728 1051.28449,582.542334 C1050.87017,582.796378 1050.56026,583.202051 1050.4246,583.668907 C1050.36009,583.892359 1050.32351,584.148398 1050.34745,584.381161 C1050.37937,584.687078 1050.50972,584.972379 1050.51438,585.285611 C1050.51903,585.660027 1050.33681,586.021807 1049.98501,586.17676 C1049.68308,586.312428 1049.33593,586.394227 1049.0207,586.363636 C1048.31244,586.295802 1047.70194,585.952643 1047.20382,585.342804 C1046.55009,584.541435 1046.21358,583.390921 1046.32664,582.340828 C1046.51352,580.599762 1047.76911,578.980397 1049.52613,578.21494 C1051.58708,577.317805 1054.1641,577.660299 1056.09138,579.088798 C1057.7154,580.29318 1059.0182,581.999664 1059.20109,584.44567 C1059.43053,587.496858 1058.47354,590.169641 1056.45848,592.158766 C1054.20666,594.380654 1050.90675,595.426092 1047.63011,594.955246 C1042.70751,594.246982 1038.63948,590.181612 1037.73636,585.068144 C1036.76674,579.57627 1039.58716,573.741237 1044.59555,570.879584 C1049.19361,568.252023 1055.20355,568.329168 1059.90603,571.076435 C1061.90446,572.243574 1063.63023,573.848308 1064.95299,575.745658 C1067.88713,579.952016 1068.05805,584.55274 1068.05539,589.478003 C1068.05539,590.732262 1068.05472,592.485964 1068.05406,593.740224 L1068.05406,597.026836 C1068.05406,598.118826 1068.93523,599 1070.0219,599 C1071.10857,599 1071.98975,598.118826 1071.98975,597.032156 C1071.98975,597.030826 1071.98975,595.933515 1071.98975,593.740224 C1072.00238,586.696154 1072.33423,579.180573 1067.941,573.152015 C1066.57103,571.271955 1064.87452,569.634635 1062.94192,568.339143 Z" id="Fill-1065" transform="translate(1052.809251, 582.000000) rotate(-360.000000) translate(-1052.809251, -582.000000) "></path>
            <path d="M1262.24239,719.467683 C1262.19912,719.424414 1262.15574,719.381035 1262.11225,719.337547 C1234.47937,691.605345 1206.24798,660.765653 1165.2913,654.338974 C1152.51896,652.334394 1139.41732,652.566999 1126.73123,655.070764 C1124.48098,655.512451 1122.24902,656.024703 1120.03013,656.607521 C1082.76637,666.39259 1053.46605,695.029074 1043.55553,731.378095 C1032.56824,771.678777 1047.6039,814.402206 1080.94213,837.730604 C1112.22089,859.621558 1154.77967,859.38634 1184.36748,837.236646 C1204.53611,822.143491 1216.71518,798.532832 1216.87461,774.15118 C1217.02096,751.962283 1206.54854,730.215072 1189.52659,716.020973 C1174.36549,703.180684 1155.87474,700.109783 1138.81098,702.647523 C1118.02294,705.73672 1099.84059,719.847186 1092.45735,738.620195 C1085.73535,755.71793 1088.47694,775.536353 1099.43026,789.124112 C1106.76122,798.216594 1118.00464,804.332262 1129.49896,805.497898 C1139.58459,806.519789 1149.27295,803.668425 1156.77379,797.474351 C1165.81662,790.0101 1170.37723,777.180265 1167.85256,766.287058 C1165.76958,757.288663 1159.2279,750.846304 1149.91327,748.614346 C1144.04327,747.208266 1138.14192,750.825396 1136.73583,756.700618 C1136.10597,759.327219 1136.48232,762.139381 1137.78386,764.507242 C1138.4085,765.638902 1139.27096,766.788857 1140.27979,767.609506 C1141.60746,768.686282 1143.24092,769.295235 1144.49019,770.507915 C1145.9799,771.961039 1146.68556,774.098909 1145.91195,776.090422 C1145.25857,777.810127 1144.21577,779.495855 1142.85673,780.614448 C1139.80674,783.13128 1136.05893,784.181921 1131.70478,783.742847 C1125.98637,783.162643 1120.14251,779.963678 1116.46004,775.392608 C1110.35222,767.815975 1108.92261,756.517671 1112.81939,746.604539 C1117.39307,734.979543 1128.86649,726.198072 1142.05437,724.237922 C1153.16973,722.588782 1164.99597,724.175197 1175.32727,733.069051 C1188.21983,744.158272 1194.96274,758.422937 1194.86081,774.159021 C1194.74321,791.740259 1185.88333,808.817085 1171.15607,819.843582 C1149.02728,836.405542 1117.06377,836.415996 1093.41913,819.869717 C1068.02604,802.097691 1056.1789,768.082556 1064.61538,737.154003 C1072.35928,708.757964 1096.28095,685.442634 1125.55775,677.758846 C1137.99817,674.491929 1151.08675,674.016266 1163.74147,676.274359 C1191.80298,681.274048 1210.55508,698.682793 1229.90045,718.049075 C1233.79584,721.944458 1238.91541,727.067299 1243.32299,731.478819 L1243.32299,719.467683 L1262.24239,719.467683 Z" id="Combined-Shape" transform="translate(1151.185530, 753.497447) scale(-1, 1) rotate(-180.000000) translate(-1151.185530, -753.497447) "></path>
            <path d="M1732.30895,550.18326 C1729.36201,548.203376 1726.35785,546.320769 1723.29075,544.529718 C1671.78514,514.448063 1608.36018,513.721343 1557.71862,542.664277 C1501.57231,574.754427 1471.26176,637.984841 1482.21979,700.019312 C1492.49688,758.225626 1539.34461,804.558355 1595.98304,812.701058 C1634.58506,818.257324 1673.76503,805.742852 1700.6308,779.226134 C1725.0818,755.095577 1737.42461,719.823879 1734.32889,685.650844 C1731.78823,654.996969 1714.90771,631.392855 1693.44943,615.490836 C1667.31038,596.115435 1631.95857,591.657834 1603.32463,604.126528 C1577.24852,615.485114 1558.55407,640.182169 1555.67007,667.047942 C1553.74169,685.027124 1559.35517,704.030581 1570.66226,717.889772 C1580.58457,730.049467 1594.31215,737.534117 1609.30434,738.964669 C1627.37508,740.692776 1646.41287,731.640241 1655.57413,716.95133 C1663.14461,704.820246 1663.03589,690.606278 1655.28229,677.965917 C1650.39553,670.000602 1639.97538,667.499996 1632.00434,672.392485 C1628.43941,674.578369 1625.77286,678.068917 1624.60553,682.085908 C1624.05047,684.00857 1623.73575,686.211621 1623.94175,688.214394 C1624.21642,690.846611 1625.33797,693.301438 1625.37803,695.996599 C1625.41808,699.218203 1623.8502,702.331085 1620.82315,703.664359 C1618.22526,704.83169 1615.23827,705.535522 1612.52594,705.2723 C1606.43179,704.688635 1601.1788,701.735975 1596.89287,696.488709 C1591.26794,689.593447 1588.3725,679.694025 1589.34527,670.658656 C1590.95321,655.677912 1601.75675,641.744332 1616.87482,635.158069 C1634.60795,627.438809 1656.78151,630.385747 1673.36447,642.677052 C1687.33811,653.039973 1698.54792,667.723163 1700.12152,688.769449 C1702.09569,715.022945 1693.86143,738.020504 1676.52313,755.135632 C1657.14773,774.253534 1628.75413,783.248847 1600.5608,779.197523 C1558.20501,773.10337 1523.20226,738.123504 1515.4315,694.125436 C1507.08851,646.871432 1531.3564,596.664767 1574.45036,572.0421 C1614.01372,549.433651 1665.72532,550.097427 1706.18707,573.735874 C1723.38231,583.778352 1738.23144,597.586043 1749.61291,613.911506 C1774.8593,650.10448 1776.32991,689.690724 1776.30702,732.069407 C1776.30702,742.861493 1776.3013,757.950959 1776.29558,768.743046 L1776.29558,797.022205 C1776.29558,806.418073 1783.8775,814 1793.22759,814 C1802.57768,814 1810.15961,806.418073 1810.15961,797.067983 C1810.15961,797.056538 1810.15961,787.614893 1810.15961,768.743046 C1810.26833,708.133405 1813.12371,643.466717 1775.3228,591.594889 C1763.53505,575.418204 1748.93769,561.330124 1732.30895,550.18326 Z" id="Fill-1065" transform="translate(1645.123921, 667.726052) scale(-1, 1) rotate(-180.000000) translate(-1645.123921, -667.726052) "></path>
            <path d="M1766.33859,778.615716 C1765.65464,778.156207 1764.95741,777.719276 1764.24557,777.303593 C1752.29171,770.321985 1737.5715,770.153321 1725.81817,776.870646 C1712.78725,784.318403 1705.75252,798.99346 1708.29576,813.390953 C1710.68095,826.899974 1721.55377,837.653271 1734.69891,839.5431 C1743.65799,840.832646 1752.75122,837.92818 1758.98646,831.773952 C1764.66126,826.173525 1767.52588,817.987367 1766.8074,810.056196 C1766.21774,802.941781 1762.29997,797.463536 1757.31974,793.772859 C1751.25317,789.276049 1743.04842,788.241491 1736.40281,791.135333 C1730.35084,793.771531 1726.01207,799.503435 1725.34273,805.738674 C1724.89517,809.911437 1726.198,814.321923 1728.82224,817.538483 C1731.1251,820.360609 1734.31111,822.097711 1737.79063,822.429726 C1741.98464,822.8308 1746.40309,820.72981 1748.52932,817.320681 C1750.28634,814.505195 1750.26111,811.206295 1748.46159,808.272612 C1747.32742,806.423953 1744.90903,805.843591 1743.05904,806.979082 C1742.23166,807.486401 1741.61278,808.296517 1741.34186,809.228815 C1741.21304,809.675043 1741.13999,810.186346 1741.1878,810.651166 C1741.25155,811.262074 1741.51185,811.831811 1741.52115,812.457327 C1741.53044,813.205025 1741.16656,813.927489 1740.46401,814.236927 C1739.86107,814.507851 1739.16783,814.671202 1738.53833,814.610112 C1737.12394,814.47465 1735.90478,813.789371 1734.91007,812.57154 C1733.60458,810.971229 1732.93259,808.673686 1733.15836,806.57668 C1733.53154,803.09982 1736.03892,799.865996 1739.54765,798.337399 C1743.66331,796.545847 1748.80954,797.229798 1752.65825,800.082469 C1755.90137,802.487585 1758.50304,805.895386 1758.86826,810.779988 C1759.32644,816.873125 1757.41536,822.210596 1753.39134,826.182822 C1748.89453,830.619869 1742.3047,832.707578 1735.76135,831.767312 C1725.93106,830.352929 1717.80732,822.234501 1716.00381,812.023052 C1714.0675,801.055937 1719.6998,789.403543 1729.70142,783.688903 C1738.88362,778.44174 1750.88529,778.595795 1760.276,784.082009 C1764.26682,786.412753 1767.71314,789.617361 1770.35465,793.406314 C1776.21404,801.80629 1776.55536,810.993806 1776.55004,820.829414 C1776.55004,823.334134 1776.54872,826.836227 1776.54739,829.340947 L1776.54739,835.904217 C1776.54739,838.084891 1778.30707,839.84457 1780.47712,839.84457 C1782.64716,839.84457 1784.40684,838.084891 1784.40684,835.914842 C1784.40684,835.912186 1784.40684,833.720887 1784.40684,829.340947 C1784.43208,815.274141 1785.09478,800.265741 1776.32162,788.226882 C1773.58581,784.472458 1770.19794,781.202776 1766.33859,778.615716 Z" id="Fill-1065" transform="translate(1746.103944, 805.896056) scale(-1, 1) rotate(-495.000000) translate(-1746.103944, -805.896056) "></path>
            <path d="M1813.33859,725.615716 C1812.65464,725.156207 1811.95741,724.719276 1811.24557,724.303593 C1799.29171,717.321985 1784.5715,717.153321 1772.81817,723.870646 C1759.78725,731.318403 1752.75252,745.99346 1755.29576,760.390953 C1757.68095,773.899974 1768.55377,784.653271 1781.69891,786.5431 C1790.65799,787.832646 1799.75122,784.92818 1805.98646,778.773952 C1811.66126,773.173525 1814.52588,764.987367 1813.8074,757.056196 C1813.21774,749.941781 1809.29997,744.463536 1804.31974,740.772859 C1798.25317,736.276049 1790.04842,735.241491 1783.40281,738.135333 C1777.35084,740.771531 1773.01207,746.503435 1772.34273,752.738674 C1771.89517,756.911437 1773.198,761.321923 1775.82224,764.538483 C1778.1251,767.360609 1781.31111,769.097711 1784.79063,769.429726 C1788.98464,769.8308 1793.40309,767.72981 1795.52932,764.320681 C1797.28634,761.505195 1797.26111,758.206295 1795.46159,755.272612 C1794.32742,753.423953 1791.90903,752.843591 1790.05904,753.979082 C1789.23166,754.486401 1788.61278,755.296517 1788.34186,756.228815 C1788.21304,756.675043 1788.13999,757.186346 1788.1878,757.651166 C1788.25155,758.262074 1788.51185,758.831811 1788.52115,759.457327 C1788.53044,760.205025 1788.16656,760.927489 1787.46401,761.236927 C1786.86107,761.507851 1786.16783,761.671202 1785.53833,761.610112 C1784.12394,761.47465 1782.90478,760.789371 1781.91007,759.57154 C1780.60458,757.971229 1779.93259,755.673686 1780.15836,753.57668 C1780.53154,750.09982 1783.03892,746.865996 1786.54765,745.337399 C1790.66331,743.545847 1795.80954,744.229798 1799.65825,747.082469 C1802.90137,749.487585 1805.50304,752.895386 1805.86826,757.779988 C1806.32644,763.873125 1804.41536,769.210596 1800.39134,773.182822 C1795.89453,777.619869 1789.3047,779.707578 1782.76135,778.767312 C1772.93106,777.352929 1764.80732,769.234501 1763.00381,759.023052 C1761.0675,748.055937 1766.6998,736.403543 1776.70142,730.688903 C1785.88362,725.44174 1797.88529,725.595795 1807.276,731.082009 C1811.26682,733.412753 1814.71314,736.617361 1817.35465,740.406314 C1823.21404,748.80629 1823.55536,757.993806 1823.55004,767.829414 C1823.55004,770.334134 1823.54872,773.836227 1823.54739,776.340947 L1823.54739,782.904217 C1823.54739,785.084891 1825.30707,786.84457 1827.47712,786.84457 C1829.64716,786.84457 1831.40684,785.084891 1831.40684,782.914842 C1831.40684,782.912186 1831.40684,780.720887 1831.40684,776.340947 C1831.43208,762.274141 1832.09478,747.265741 1823.32162,735.226882 C1820.58581,731.472458 1817.19794,728.202776 1813.33859,725.615716 Z" id="Fill-1065" transform="translate(1793.103944, 752.896056) scale(-1, 1) rotate(-495.000000) translate(-1793.103944, -752.896056) "></path>
            <path d="M1871.33859,759.615716 C1870.65464,759.156207 1869.95741,758.719276 1869.24557,758.303593 C1857.29171,751.321985 1842.5715,751.153321 1830.81817,757.870646 C1817.78725,765.318403 1810.75252,779.99346 1813.29576,794.390953 C1815.68095,807.899974 1826.55377,818.653271 1839.69891,820.5431 C1848.65799,821.832646 1857.75122,818.92818 1863.98646,812.773952 C1869.66126,807.173525 1872.52588,798.987367 1871.8074,791.056196 C1871.21774,783.941781 1867.29997,778.463536 1862.31974,774.772859 C1856.25317,770.276049 1848.04842,769.241491 1841.40281,772.135333 C1835.35084,774.771531 1831.01207,780.503435 1830.34273,786.738674 C1829.89517,790.911437 1831.198,795.321923 1833.82224,798.538483 C1836.1251,801.360609 1839.31111,803.097711 1842.79063,803.429726 C1846.98464,803.8308 1851.40309,801.72981 1853.52932,798.320681 C1855.28634,795.505195 1855.26111,792.206295 1853.46159,789.272612 C1852.32742,787.423953 1849.90903,786.843591 1848.05904,787.979082 C1847.23166,788.486401 1846.61278,789.296517 1846.34186,790.228815 C1846.21304,790.675043 1846.13999,791.186346 1846.1878,791.651166 C1846.25155,792.262074 1846.51185,792.831811 1846.52115,793.457327 C1846.53044,794.205025 1846.16656,794.927489 1845.46401,795.236927 C1844.86107,795.507851 1844.16783,795.671202 1843.53833,795.610112 C1842.12394,795.47465 1840.90478,794.789371 1839.91007,793.57154 C1838.60458,791.971229 1837.93259,789.673686 1838.15836,787.57668 C1838.53154,784.09982 1841.03892,780.865996 1844.54765,779.337399 C1848.66331,777.545847 1853.80954,778.229798 1857.65825,781.082469 C1860.90137,783.487585 1863.50304,786.895386 1863.86826,791.779988 C1864.32644,797.873125 1862.41536,803.210596 1858.39134,807.182822 C1853.89453,811.619869 1847.3047,813.707578 1840.76135,812.767312 C1830.93106,811.352929 1822.80732,803.234501 1821.00381,793.023052 C1819.0675,782.055937 1824.6998,770.403543 1834.70142,764.688903 C1843.88362,759.44174 1855.88529,759.595795 1865.276,765.082009 C1869.26682,767.412753 1872.71314,770.617361 1875.35465,774.406314 C1881.21404,782.80629 1881.55536,791.993806 1881.55004,801.829414 C1881.55004,804.334134 1881.54872,807.836227 1881.54739,810.340947 L1881.54739,816.904217 C1881.54739,819.084891 1883.30707,820.84457 1885.47712,820.84457 C1887.64716,820.84457 1889.40684,819.084891 1889.40684,816.914842 C1889.40684,816.912186 1889.40684,814.720887 1889.40684,810.340947 C1889.43208,796.274141 1890.09478,781.265741 1881.32162,769.226882 C1878.58581,765.472458 1875.19794,762.202776 1871.33859,759.615716 Z" id="Fill-1065" transform="translate(1851.103944, 786.896056) scale(-1, 1) rotate(-495.000000) translate(-1851.103944, -786.896056) "></path>
            <path d="M1806.91289,791.081273 C1806.5299,790.823962 1806.13947,790.579293 1805.74086,790.346523 C1799.04705,786.437031 1790.80417,786.342585 1784.22266,790.104086 C1776.92574,794.274607 1772.9865,802.4922 1774.41063,810.554365 C1775.74627,818.119012 1781.83473,824.140537 1789.19561,825.198785 C1794.21243,825.920892 1799.30436,824.294478 1802.79591,820.848294 C1805.97363,817.712223 1807.57773,813.128219 1807.1754,808.687001 C1806.84521,804.703141 1804.65138,801.635488 1801.8626,799.568819 C1798.4655,797.05074 1793.87108,796.471419 1790.14974,798.091883 C1786.76082,799.568075 1784.33124,802.77777 1783.95643,806.269318 C1783.70581,808.60594 1784.43535,811.07568 1785.90485,812.876857 C1787.19438,814.457164 1788.97846,815.429889 1790.92688,815.615807 C1793.2754,815.840397 1795.7496,814.663905 1796.94023,812.754895 C1797.92411,811.178307 1797.90998,809.331022 1796.9023,807.688247 C1796.2672,806.653053 1794.91297,806.328068 1793.87703,806.963909 C1793.41373,807.247992 1793.06717,807.701633 1792.91546,808.223692 C1792.84333,808.473566 1792.80243,808.759881 1792.8292,809.020166 C1792.86489,809.362256 1793.01065,809.681292 1793.01586,810.031562 C1793.02107,810.450251 1792.8173,810.854809 1792.4239,811.028085 C1792.08627,811.179794 1791.69807,811.271266 1791.34557,811.237057 C1790.55356,811.161203 1789.87086,810.777467 1789.31385,810.095518 C1788.58282,809.199392 1788.20652,807.912836 1788.33295,806.738576 C1788.54192,804.791638 1789.94598,802.980793 1791.91076,802.124825 C1794.21541,801.121609 1797.09714,801.504601 1799.25231,803.102012 C1801.06836,804.448805 1802.52521,806.357071 1802.72972,809.092303 C1802.98629,812.504277 1801.91614,815.493101 1799.66281,817.717429 C1797.14474,820.202042 1793.45463,821.371097 1789.79055,820.844576 C1784.28588,820.052564 1779.73682,815.506487 1778.72692,809.788381 C1777.64264,803.647125 1780.79656,797.122133 1786.39717,793.922106 C1791.53892,790.983851 1798.2595,791.070118 1803.51802,794.142233 C1805.75276,795.44738 1807.68259,797.241864 1809.16176,799.363565 C1812.44284,804.0673 1812.63397,809.212034 1812.63099,814.719681 C1812.63099,816.122249 1812.63025,818.083316 1812.62951,819.485884 L1812.62951,823.161119 C1812.62951,824.382231 1813.61487,825.367599 1814.83004,825.367599 C1816.0452,825.367599 1817.03057,824.382231 1817.03057,823.167068 C1817.03057,823.165581 1817.03057,821.93852 1817.03057,819.485884 C1817.0447,811.608894 1817.41579,803.204639 1812.50308,796.463238 C1810.97111,794.360873 1809.074,792.529949 1806.91289,791.081273 Z" id="Fill-1065" transform="translate(1795.582089, 806.357447) scale(-1, 1) rotate(-314.000000) translate(-1795.582089, -806.357447) "></path>
            <path d="M1596.36687,831.187137 C1593.02047,792.258571 1583.94603,754.448296 1559.83969,721.368676 C1546.87377,703.575165 1530.81744,688.079012 1512.5267,675.818043 C1509.28522,673.640273 1505.9808,671.569503 1502.60714,669.59944 C1445.95366,636.511188 1376.1895,635.711833 1320.48643,667.547553 C1258.72841,702.845045 1225.38839,772.395204 1237.44166,840.629889 C1248.74592,904.6538 1300.27598,955.617387 1362.5753,964.573937 C1405.03551,970.685539 1448.13143,956.920273 1477.68238,927.753265 C1504.57721,901.21091 1518.15365,862.41388 1514.74853,824.825324 C1511.95393,791.107659 1493.38624,765.144364 1469.78325,747.652971 C1441.03165,726.34104 1402.1465,721.437911 1370.65067,735.152825 C1341.96831,747.646677 1321.40538,774.812151 1318.23314,804.363101 C1316.11201,824.139264 1322.28656,845.042076 1334.72376,860.286464 C1345.63779,873.661494 1360.73741,881.894219 1377.22803,883.467752 C1397.1049,885.36858 1418.04548,875.411263 1428.12239,859.254226 C1436.44952,845.910666 1436.32993,830.276042 1427.80139,816.372305 C1422.4262,807.610873 1410.96458,804.860337 1402.19686,810.24182 C1398.27561,812.646178 1395.34255,816.485599 1394.05854,820.90408 C1393.44801,823.018908 1393.10184,825.442149 1393.32842,827.645095 C1393.63054,830.540396 1394.86419,833.240578 1394.90825,836.205115 C1394.95231,839.748711 1393.22772,843.172719 1389.89812,844.639252 C1387.04059,845.923254 1383.75505,846.697433 1380.77163,846.407903 C1374.06838,845.765901 1368.29037,842.518129 1363.57606,836.74641 C1357.38893,829.161981 1354.2041,818.273133 1355.2741,808.334698 C1357.04275,791.85666 1368.92607,776.530449 1385.55517,769.285903 C1405.06069,760.795119 1429.45045,764.036597 1447.69084,777.556392 C1463.06111,788.955066 1475.39132,805.105808 1477.1222,828.255626 C1479.29368,857.133104 1470.23642,882.42922 1451.1652,901.254969 C1429.85327,922.283664 1398.62179,932.17804 1367.6106,927.721794 C1321.02144,921.018544 1282.52023,882.542515 1273.9728,834.146933 C1264.79595,782.169991 1291.48937,726.945277 1338.89048,699.861627 C1382.40811,674.993511 1439.28818,675.723631 1483.79398,701.72469 C1502.70785,712.770892 1519.04112,727.958632 1531.56015,745.915791 C1550.25417,772.715351 1557.09679,801.206337 1559.56499,831.187137 L1596.36687,831.187137 Z" id="Combined-Shape" transform="translate(1415.683433, 805.107634) scale(-1, 1) rotate(-180.000000) translate(-1415.683433, -805.107634) "></path>
            <path d="M2021.50287,-26.3457801 C1989.63079,-70.0848009 1950.16201,-108.176583 1905.20071,-138.315817 C1897.23269,-143.669089 1889.10995,-148.759339 1880.81702,-153.60204 C1741.55457,-234.937743 1570.06419,-236.902672 1433.138,-158.645874 C1281.32786,-71.8795396 1199.37328,99.084797 1229.00194,266.815509 C1256.78945,424.19553 1383.45778,549.471389 1536.5985,571.487882 C1640.97184,586.511083 1746.90785,552.674069 1819.54835,480.977351 C1885.65972,415.732409 1919.03257,320.363706 1910.66228,227.965605 C1903.79277,145.082713 1858.1507,81.2611847 1800.13113,38.2648145 C1729.45556,-14.1229904 1633.87025,-26.1755893 1556.44893,7.53764952 C1485.94355,38.2493426 1435.3969,105.026001 1427.59907,177.666504 C1422.38504,226.279169 1437.56296,277.661301 1468.13541,315.134208 C1494.96366,348.011965 1532.08071,368.249192 1572.61705,372.117163 C1621.47727,376.789673 1672.95223,352.31315 1697.72272,312.596819 C1718.19203,279.796422 1717.89806,241.364258 1696.93365,207.186862 C1683.72066,185.649997 1655.54636,178.888783 1633.99402,192.117245 C1624.35504,198.027506 1617.14514,207.465356 1613.98888,218.32662 C1612.4881,223.525173 1611.63715,229.481849 1612.19414,234.897009 C1612.93679,242.014077 1615.96928,248.651516 1616.07758,255.938774 C1616.18588,264.649445 1611.94659,273.066151 1603.76196,276.671101 C1596.73772,279.827365 1588.6614,281.730407 1581.32772,281.018701 C1564.85017,279.440568 1550.64698,271.457075 1539.05853,257.269356 C1523.84967,238.625734 1516.0209,211.859372 1518.65112,187.429264 C1522.99872,146.923867 1552.20964,109.249826 1593.08636,91.4416855 C1641.03373,70.5701117 1700.98729,78.5381328 1745.82481,111.771743 C1783.60716,139.791328 1813.91658,179.492187 1818.17135,236.397782 C1823.50915,307.382794 1801.24511,369.564302 1754.36529,415.840712 C1701.97749,467.532282 1625.20599,491.854086 1548.97601,480.899991 C1434.45311,464.422433 1339.81159,369.842796 1318.80077,250.879467 C1296.24276,123.112635 1361.85903,-12.6376894 1478.3778,-79.2132134 C1585.35042,-140.342634 1725.16985,-138.547895 1834.57155,-74.6335352 C1881.06457,-47.4803759 1921.21411,-10.1467158 1951.98769,33.994574 C2020.24965,131.854251 2024.22592,238.888756 2024.16404,353.473541 C2024.16404,382.653517 2024.14856,423.45288 2024.13309,452.632856 L2024.13309,529.094915 L2024.13309,529.094915 C2024.13309,529.141331 2024.13309,529.172275 2024.13309,529.21869 C2024.13309,554.499751 2044.63334,575 2069.9144,575 C2095.19546,575 2115.69571,554.499751 2115.69571,529.21869 C2115.69571,529.172275 2115.68024,529.141331 2115.68024,529.094915 L2115.69571,529.094915 L2115.69571,452.632856 C2115.98968,288.754643 2123.71015,113.906863 2021.50287,-26.3457801" id="Fill-1065" transform="translate(1669.467138, 179.500000) scale(-1, 1) rotate(-180.000000) translate(-1669.467138, -179.500000) "></path>
            <path d="M1361.31307,372.538403 C1331.8421,349.030843 1299.18281,330.49035 1260.05925,324.351313 C1237.11645,320.750511 1213.58213,321.168335 1190.79426,325.665818 C1186.75216,326.459215 1182.74292,327.379368 1178.75715,328.426277 C1111.82072,346.003077 1059.1889,397.442447 1041.38676,462.735753 C1021.65042,535.127383 1048.65879,611.870961 1108.54385,653.77548 C1164.72952,693.097937 1241.17733,692.675418 1294.32556,652.88819 C1330.55423,625.776538 1352.43134,583.364996 1352.71771,539.56853 C1352.98062,499.710882 1334.16912,460.646631 1303.59281,435.149942 C1276.3591,412.085086 1243.14439,406.568863 1212.49297,411.127376 C1175.15166,416.676462 1142.49092,442.022921 1129.22851,475.744651 C1117.15385,506.457105 1122.07855,542.056699 1141.75386,566.464227 C1154.92238,582.796943 1175.11879,593.782443 1195.7659,595.87626 C1213.88259,597.711872 1231.28569,592.59 1244.75935,581.46366 C1261.00287,568.055716 1269.19505,545.009639 1264.66001,525.442303 C1260.91837,509.278595 1249.16764,497.706263 1232.43588,493.697024 C1221.89167,491.171298 1211.29114,497.668705 1208.76541,508.222297 C1207.634,512.940428 1208.31003,517.991881 1210.64797,522.245241 C1211.76999,524.278028 1213.31923,526.343678 1215.13137,527.8178 C1217.51625,529.751999 1220.45041,530.845855 1222.69446,533.024176 C1225.37042,535.634406 1226.63797,539.474637 1225.24836,543.051966 C1224.07469,546.141051 1222.20152,549.169106 1219.7603,551.17842 C1214.28163,555.699375 1207.54949,557.586628 1199.72819,556.797925 C1189.45628,555.755711 1178.95903,550.00945 1172.34425,541.798492 C1161.37284,528.188678 1158.80486,507.893671 1165.80459,490.086832 C1174.02024,469.204993 1194.62979,453.430941 1218.31904,449.909947 C1238.28542,446.947618 1259.52875,449.797275 1278.08673,465.773197 C1301.24548,485.692632 1313.3577,511.316077 1313.17461,539.582614 C1312.96335,571.16358 1297.04846,601.838476 1270.59406,621.645239 C1230.84439,651.395288 1173.42872,651.414067 1130.95614,621.692186 C1085.34285,589.76851 1064.06196,528.667533 1079.21632,473.110948 C1093.12659,422.103487 1136.0968,380.222441 1188.68636,366.420146 C1211.03293,360.551823 1234.54378,359.697395 1257.27531,363.75358 C1287.79561,369.191349 1312.18533,382.800931 1334.39299,400.414965 L1361.31307,372.538403 Z" id="Combined-Shape" transform="translate(1198.156534, 502.468479) scale(-1, 1) rotate(-180.000000) translate(-1198.156534, -502.468479) "></path>
            <path d="M1100.48018,617.796365 C1088.24923,605.757737 1074.98426,594.516928 1057.30595,591.742953 C1050.4447,590.666101 1043.40656,590.791055 1036.59164,592.136067 C1035.38282,592.373339 1034.18382,592.648519 1032.99184,592.961607 C1012.97391,598.218103 997.233905,613.6015 991.910017,633.128038 C986.00769,654.777392 994.08478,677.728235 1011.99393,690.26015 C1028.79675,702.019877 1051.65915,701.893519 1067.55359,689.994798 C1078.3881,681.88682 1084.93064,669.203275 1085.01628,656.105556 C1085.0949,644.185776 1079.46916,632.503267 1070.32504,624.878258 C1062.18056,617.98051 1052.24741,616.330835 1043.08083,617.694098 C1031.91359,619.353601 1022.14611,626.933683 1018.17987,637.018463 C1014.56883,646.203293 1016.04161,656.849665 1021.92568,664.148951 C1025.86384,669.033394 1031.90376,672.318704 1038.07846,672.944879 C1043.49641,673.493834 1048.70096,671.962093 1052.73038,668.634664 C1057.58815,664.6249 1060.03809,657.732768 1058.68185,651.880984 C1057.56288,647.047084 1054.04872,643.586277 1049.04494,642.387279 C1045.8916,641.631938 1042.72142,643.575045 1041.96608,646.731189 C1041.62772,648.142188 1041.82989,649.652869 1042.52907,650.924874 C1042.86462,651.532797 1043.32794,652.150548 1043.86987,652.591397 C1044.58309,653.169836 1045.46058,653.496963 1046.13168,654.14841 C1046.93195,654.929022 1047.31102,656.077477 1046.89545,657.147308 C1046.54445,658.071127 1045.98426,658.976693 1045.25419,659.577596 C1043.61575,660.929628 1041.60245,661.494027 1039.26342,661.258159 C1036.19151,660.946475 1033.05221,659.228005 1031.07401,656.772446 C1027.79291,652.702311 1027.02493,646.632911 1029.11827,641.307619 C1031.57523,635.062721 1037.7387,630.345352 1044.82317,629.292368 C1050.79429,628.406457 1057.1473,629.258672 1062.69723,634.036412 C1069.62306,639.993495 1073.24532,647.656411 1073.19057,656.109768 C1073.12739,665.554334 1068.3679,674.727932 1060.45648,680.651319 C1048.56899,689.548333 1031.39833,689.553949 1018.69653,680.665358 C1005.05547,671.118302 998.691235,652.845517 1003.22328,636.230831 C1007.38327,620.976601 1020.23389,608.451705 1035.96126,604.324008 C1042.6442,602.569034 1049.67532,602.31351 1056.47339,603.526548 C1070.32962,605.995297 1079.96055,614.096198 1089.4975,623.468948 L1089.4975,617.796365 L1100.48018,617.796365 Z" id="Combined-Shape" transform="translate(1045.240092, 645.010459) scale(-1, 1) rotate(-180.000000) translate(-1045.240092, -645.010459) "></path>
            <path d="M2115.31307,491.601445 C2085.8421,468.093885 2053.18281,449.553391 2014.05925,443.414355 C1991.11645,439.813552 1967.58213,440.231377 1944.79426,444.728859 C1940.75216,445.522256 1936.74292,446.442409 1932.75715,447.489318 C1865.82072,465.066119 1813.1889,516.505489 1795.38676,581.798795 C1775.65042,654.190425 1802.65879,730.934002 1862.54385,772.838522 C1918.72952,812.160979 1995.17733,811.73846 2048.32556,771.951231 C2084.55423,744.83958 2106.43134,702.428038 2106.71771,658.631571 C2106.98062,618.773923 2088.16912,579.709672 2057.59281,554.212983 C2030.3591,531.148128 1997.14439,525.631904 1966.49297,530.190417 C1929.15166,535.739503 1896.49092,561.085963 1883.22851,594.807693 C1871.15385,625.520147 1876.07855,661.11974 1895.75386,685.527268 C1908.92238,701.859984 1929.11879,712.845484 1949.7659,714.939302 C1967.88259,716.774913 1985.28569,711.653041 1998.75935,700.526701 C2015.00287,687.118757 2023.19505,664.07268 2018.66001,644.505345 C2014.91837,628.341637 2003.16764,616.769304 1986.43588,612.760066 C1975.89167,610.23434 1965.29114,616.731747 1962.76541,627.285338 C1961.634,632.00347 1962.31003,637.054922 1964.64797,641.308283 C1965.76999,643.34107 1967.31923,645.406719 1969.13137,646.880842 C1971.51625,648.815041 1974.45041,649.908896 1976.69446,652.087218 C1979.37042,654.697448 1980.63797,658.537678 1979.24836,662.115008 C1978.07469,665.204093 1976.20152,668.232147 1973.7603,670.241461 C1968.28163,674.762417 1961.54949,676.64967 1953.72819,675.860967 C1943.45628,674.818753 1932.95903,669.072491 1926.34425,660.861534 C1915.37284,647.25172 1912.80486,626.956712 1919.80459,609.149874 C1928.02024,588.268034 1948.62979,572.493982 1972.31904,568.972989 C1992.28542,566.010659 2013.52875,568.860317 2032.08673,584.836239 C2055.24548,604.755674 2067.3577,630.379118 2067.17461,658.645655 C2066.96335,690.226621 2051.04846,720.901518 2024.59406,740.708281 C1984.84439,770.45833 1927.42872,770.477109 1884.95614,740.755227 C1839.34285,708.831552 1818.06196,647.730575 1833.21632,592.17399 C1847.12659,541.166528 1890.0968,499.285482 1942.68636,485.483187 C1965.03293,479.614864 1988.54378,478.760437 2011.27531,482.816621 C2041.79561,488.254391 2066.18533,501.863972 2088.39299,519.478007 L2115.31307,491.601445 Z" id="Combined-Shape"></path>
            <path d="M1035.12422,-78.7974393 C1027.3165,-89.5122103 1017.64781,-98.8435743 1006.63362,-106.226798 C1004.68169,-107.538192 1002.69186,-108.785153 1000.66033,-109.971472 C966.54514,-129.896322 924.535052,-130.377672 890.992171,-111.207063 C853.80316,-89.9518684 833.726704,-48.0706447 840.984853,-6.98156368 C847.791973,31.571903 878.82198,62.260796 916.336944,67.654188 C941.905336,71.3344295 967.856534,63.0453583 985.651317,45.4817755 C1001.84665,29.4986877 1010.02202,6.13616619 1007.97155,-16.4986454 C1006.28872,-36.802511 995.107756,-52.4369044 980.894671,-62.9697479 C963.581238,-75.8032161 940.165655,-78.7557476 921.199714,-70.4969977 C903.927973,-62.9735381 891.545534,-46.6152248 889.635295,-28.8204425 C888.358013,-16.9117724 892.076156,-4.32466433 899.565504,4.85509347 C906.137634,12.9091749 915.230219,17.866699 925.160427,18.814238 C937.12974,19.9588651 949.739589,13.9628383 955.807629,4.23350789 C960.822005,-3.80162281 960.749992,-13.2163703 955.614331,-21.5888248 C952.377537,-26.864722 945.475663,-28.5210201 940.195976,-25.2804368 C937.834709,-23.8325972 936.068496,-21.520602 935.295304,-18.8599125 C934.927659,-17.5864201 934.719201,-16.1272101 934.855646,-14.8006555 C935.037574,-13.0571837 935.780444,-11.4312068 935.806975,-9.64604334 C935.833507,-7.51218552 934.795004,-5.45034066 932.790011,-4.56723431 C931.06928,-3.79404249 929.090819,-3.32785331 927.294285,-3.50220048 C923.257769,-3.88879639 919.778406,-5.84451688 916.939579,-9.32008992 C913.213856,-13.8872279 911.296037,-20.4441977 911.940363,-26.428854 C913.005397,-36.3514824 920.161212,-45.5805122 930.174804,-49.9429818 C941.920497,-55.0559022 956.607351,-53.1039719 967.591224,-44.9627168 C976.846784,-38.0987443 984.2717,-28.3732041 985.313993,-14.4330103 C986.621597,2.95622532 981.167562,18.1888622 969.68339,29.5252188 C956.849921,42.1881299 938.043167,48.1462551 919.369069,45.4628247 C891.314334,41.4263086 868.12995,18.257085 862.982918,-10.8854243 C857.456871,-42.1845325 873.530922,-75.4393611 902.074587,-91.7484023 C928.279726,-106.723309 962.531365,-106.283651 989.331558,-90.6265161 C1000.72098,-83.9747924 1010.55643,-74.829146 1018.09505,-64.015831 C1034.81722,-40.0430943 1035.79129,-13.8227952 1035.77613,14.2471 C1035.77613,21.3953342 1035.77234,31.3899755 1035.76855,38.5382097 L1035.76855,57.2691606 L1035.76855,57.2691606 C1035.76855,57.2805311 1035.76855,57.2881114 1035.76855,57.2994819 C1035.76855,63.4925967 1040.79051,68.5145534 1046.98362,68.5145534 C1053.17674,68.5145534 1058.19869,63.4925967 1058.19869,57.2994819 C1058.19869,57.2881114 1058.1949,57.2805311 1058.1949,57.2691606 L1058.19869,57.2691606 L1058.19869,38.5382097 C1058.27071,-1.60712249 1060.16199,-44.4396753 1035.12422,-78.7974393" id="Fill-1065" transform="translate(948.885843, -28.371290) scale(-1, 1) rotate(-90.000000) translate(-948.885843, 28.371290) "></path>
            <path d="M1110.92677,144.367742 C1108.9524,141.658245 1106.50743,139.298577 1103.72221,137.431545 C1103.22862,137.099926 1102.72544,136.784601 1102.21172,136.484611 C1093.58484,131.446116 1082.96155,131.324395 1074.47939,136.172161 C1065.07522,141.547067 1059.99839,152.137778 1061.8338,162.528176 C1063.55515,172.277381 1071.40186,180.037832 1080.88845,181.401686 C1087.35406,182.332326 1093.91646,180.236228 1098.41632,175.794838 C1102.51171,171.753116 1104.57906,165.845321 1104.06054,160.121544 C1103.635,154.987206 1100.80761,151.03366 1097.21348,148.370168 C1092.83535,145.124906 1086.91413,144.378285 1082.11812,146.466715 C1077.75053,148.36921 1074.61932,152.505817 1074.13627,157.005671 C1073.81328,160.017075 1074.75351,163.200039 1076.64737,165.521369 C1078.3093,167.558045 1080.60859,168.811678 1083.11969,169.051287 C1086.14643,169.340735 1089.33514,167.82449 1090.8696,165.364186 C1092.13761,163.332303 1092.1194,160.95155 1090.82072,158.834366 C1090.00221,157.500224 1088.2569,157.081387 1086.9218,157.90085 C1086.3247,158.266972 1085.87806,158.851618 1085.68254,159.524439 C1085.58958,159.846474 1085.53686,160.215471 1085.57137,160.550924 C1085.61737,160.991804 1085.80522,161.402973 1085.81193,161.854396 C1085.81864,162.393995 1085.55603,162.915384 1085.04902,163.138699 C1084.61389,163.33422 1084.11359,163.452107 1083.65929,163.408019 C1082.63855,163.310259 1081.75871,162.815706 1081.04084,161.936821 C1080.0987,160.781906 1079.61373,159.123813 1079.77666,157.610444 C1080.04599,155.10126 1081.85551,152.76747 1084.3877,151.664311 C1087.35789,150.371381 1091.07183,150.864975 1093.84937,152.923695 C1096.18987,154.659421 1098.06745,157.118766 1098.33102,160.643892 C1098.66168,165.041193 1097.28249,168.893145 1094.37843,171.759825 C1091.13317,174.961958 1086.37741,176.468619 1081.6552,175.790046 C1074.56086,174.769313 1068.69811,168.910397 1067.39655,161.540987 C1065.99916,153.626228 1070.06388,145.216916 1077.28186,141.092768 C1083.90848,137.30599 1092.56986,137.417168 1099.34696,141.376465 C1102.22706,143.058519 1104.7142,145.371224 1106.62052,148.10564 C1110.84914,154.167744 1111.09546,160.7982 1111.09162,167.896372 C1111.09162,169.703982 1111.09067,172.231376 1111.08971,174.038985 L1111.08971,178.775573 L1111.08971,178.775573 C1111.08971,178.778448 1111.08971,178.780365 1111.08971,178.78324 C1111.08971,180.349323 1112.35963,181.61925 1113.92572,181.61925 C1115.4918,181.61925 1116.76173,180.349323 1116.76173,178.78324 C1116.76173,178.780365 1116.76077,178.778448 1116.76077,178.775573 L1116.76173,178.775573 L1116.76173,174.038985 C1116.77994,163.887237 1117.2582,153.055959 1110.92677,144.367742" id="Fill-1065" transform="translate(1089.119250, 157.119250) scale(-1, 1) rotate(-135.000000) translate(-1089.119250, -157.119250) "></path>
            <path d="M1247.55431,207.784706 C1247.51104,207.741437 1247.46766,207.698058 1247.42417,207.65457 C1219.79128,179.922368 1191.5599,149.082676 1150.60322,142.655998 C1137.83088,140.651418 1124.72924,140.884022 1112.04315,143.387787 C1109.79289,143.829474 1107.56094,144.341727 1105.34205,144.924545 C1068.07829,154.709613 1038.77797,183.346097 1028.86745,219.695118 C1017.88016,259.995801 1032.91581,302.719229 1066.25404,326.047627 C1097.53281,347.938581 1140.09159,347.703363 1169.6794,325.553669 C1189.84803,310.460514 1202.0271,286.849855 1202.18652,262.468203 C1202.33288,240.279306 1191.86045,218.532095 1174.83851,204.337996 C1159.6774,191.497707 1141.18666,188.426806 1124.1229,190.964547 C1103.33485,194.053743 1085.1525,208.164209 1077.76927,226.937218 C1071.04726,244.034953 1073.78886,263.853376 1084.74218,277.441135 C1092.07314,286.533617 1103.31656,292.649285 1114.81088,293.814921 C1124.8965,294.836813 1134.58487,291.985448 1142.08571,285.791374 C1151.12854,278.327123 1155.68915,265.497288 1153.16448,254.604082 C1151.08149,245.605686 1144.53982,239.163327 1135.22519,236.93137 C1129.35519,235.525289 1123.45383,239.142419 1122.04775,245.017642 C1121.41789,247.644242 1121.79424,250.456404 1123.09578,252.824265 C1123.72041,253.955925 1124.58288,255.10588 1125.5917,255.926529 C1126.91938,257.003305 1128.55284,257.612258 1129.80211,258.824938 C1131.29182,260.278062 1131.99747,262.415932 1131.22387,264.407445 C1130.57048,266.12715 1129.52768,267.812879 1128.16865,268.931471 C1125.11865,271.448303 1121.37085,272.498944 1117.0167,272.05987 C1111.29829,271.479666 1105.45443,268.280701 1101.77196,263.709631 C1095.66413,256.132998 1094.23453,244.834694 1098.13131,234.921562 C1102.70499,223.296567 1114.1784,214.515095 1127.36629,212.554945 C1138.48165,210.905805 1150.30789,212.49222 1160.63918,221.386074 C1173.53174,232.475295 1180.27466,246.73996 1180.17273,262.476044 C1180.05512,280.057282 1171.19525,297.134108 1156.46799,308.160605 C1134.3392,324.722565 1102.37569,324.73302 1078.73105,308.186741 C1053.33796,290.414714 1041.49082,256.399579 1049.9273,225.471026 C1057.6712,197.074987 1081.59287,173.759657 1110.86967,166.075869 C1123.31009,162.808953 1136.39866,162.33329 1149.05339,164.591382 C1177.1149,169.591071 1195.867,186.999817 1215.21237,206.366098 C1219.10776,210.261481 1224.22733,215.384322 1228.6349,219.795842 L1228.6349,207.784706 L1247.55431,207.784706 Z" id="Combined-Shape" transform="translate(1136.497447, 241.814470) scale(-1, 1) rotate(-90.000000) translate(-1136.497447, -241.814470) "></path>
            <path d="M1368.79107,3.39606993 C1365.44468,-35.5324958 1356.37023,-73.3427714 1332.26389,-106.422391 C1319.29798,-124.215902 1303.24165,-139.712055 1284.9509,-151.973025 C1281.70942,-154.150794 1278.405,-156.221564 1275.03135,-158.191627 C1218.37786,-191.279879 1148.6137,-192.079234 1092.91064,-160.243514 C1031.15261,-124.946022 997.812595,-55.3958628 1009.86586,12.8388224 C1021.17012,76.8627333 1072.70018,127.82632 1134.9995,136.78287 C1177.45971,142.894472 1220.55563,129.129206 1250.10658,99.9621978 C1277.00141,73.4198431 1290.57785,34.6228133 1287.17273,-2.96574312 C1284.37813,-36.6834083 1265.81044,-62.6467029 1242.20745,-80.1380958 C1213.45585,-101.450027 1174.5707,-106.353156 1143.07487,-92.638242 C1114.39251,-80.1443899 1093.82958,-52.9789161 1090.65734,-23.4279663 C1088.53621,-3.65180351 1094.71076,17.2510089 1107.14796,32.4953967 C1118.06199,45.8704272 1133.16161,54.1031519 1149.65224,55.6766849 C1169.5291,57.5775128 1190.46968,47.6201959 1200.54659,31.463159 C1208.87372,18.1195991 1208.75414,2.48497521 1200.22559,-11.4187624 C1194.8504,-20.1801942 1183.38878,-22.9307299 1174.62106,-17.549247 C1170.69981,-15.1448886 1167.76675,-11.305468 1166.48275,-6.88698737 C1165.87221,-4.77215901 1165.52604,-2.34891818 1165.75263,-0.145971974 C1166.05474,2.74932875 1167.28839,5.44951139 1167.33245,8.41404757 C1167.37651,11.9576439 1165.65192,15.3816517 1162.32232,16.8481845 C1159.46479,18.1321874 1156.17925,18.9063656 1153.19583,18.6168356 C1146.49258,17.9748341 1140.71457,14.727062 1136.00026,8.95534293 C1129.81313,1.37091384 1126.6283,-9.51793455 1127.6983,-19.456369 C1129.46695,-35.9344066 1141.35028,-51.2606181 1157.97937,-58.5051641 C1177.48489,-66.9959482 1201.87465,-63.7544702 1220.11504,-50.2346746 C1235.48531,-38.8360015 1247.81552,-22.6852587 1249.54641,0.464558832 C1251.71788,29.3420365 1242.66062,54.6381531 1223.5894,73.463902 C1202.27747,94.4925971 1171.04599,104.386973 1140.0348,99.9307271 C1093.44564,93.2274765 1054.94443,54.7514475 1046.397,6.3558664 C1037.22016,-45.6210758 1063.91357,-100.84579 1111.31468,-127.92944 C1154.83231,-152.797556 1211.71238,-152.067437 1256.21819,-126.066377 C1275.13205,-115.020175 1291.46532,-99.8324349 1303.98435,-81.8752762 C1322.67837,-55.0757162 1329.52099,-26.5847297 1331.98919,3.39606993 L1368.79107,3.39606993 Z" id="Combined-Shape" transform="translate(1188.107634, -22.683433) scale(-1, 1) rotate(-90.000000) translate(-1188.107634, 22.683433) "></path>
            <path d="M1048.62501,64.9133899 C1019.15405,41.40583 986.494752,22.8653364 947.371191,16.7263002 C924.428396,13.1254973 900.894075,13.5433219 878.106204,18.0408045 C874.064103,18.8342017 870.054865,19.7543547 866.0691,20.8012635 C799.132663,38.3780639 746.50085,89.8174339 728.698706,155.11074 C708.962363,227.50237 735.970732,304.245948 795.855792,346.150467 C852.041461,385.472924 928.489276,385.050405 981.637501,345.263176 C1017.86618,318.151525 1039.74329,275.739983 1040.02966,231.943517 C1040.29256,192.085868 1021.48107,153.021617 990.904757,127.524929 C963.671044,104.460073 930.456337,98.9438494 899.804914,103.502363 C862.463603,109.051449 829.802865,134.397908 816.540456,168.119638 C804.465795,198.832092 809.390492,234.431685 829.065804,258.839213 C842.23432,275.171929 862.43074,286.15743 883.077847,288.251247 C901.194533,290.086858 918.597631,284.964986 932.0713,273.838646 C948.314817,260.430703 956.506996,237.384625 951.971956,217.81729 C948.230313,201.653582 936.479584,190.081249 919.747822,186.072011 C909.20362,183.546285 898.603082,190.043692 896.077355,200.597284 C894.945943,205.315415 895.621974,210.366867 897.959913,214.620228 C899.081937,216.653015 900.631174,218.718664 902.443312,220.192787 C904.828198,222.126986 907.76236,223.220842 910.006406,225.399163 C912.682361,228.009393 913.949919,231.849623 912.5603,235.426953 C911.386636,238.516038 909.513467,241.544093 907.072245,243.553406 C901.593579,248.074362 894.861439,249.961615 887.040138,249.172912 C876.768226,248.130698 866.27097,242.384436 859.656197,234.173479 C848.684781,220.563665 846.116803,200.268658 853.116538,182.461819 C861.33219,161.579979 881.94174,145.805928 905.630985,142.284934 C925.597366,139.322605 946.840695,142.172262 965.398679,158.148184 C988.557427,178.067619 1000.66965,203.691063 1000.48655,231.957601 C1000.27529,263.538566 984.360403,294.213463 957.906004,314.020226 C918.156333,343.770275 860.740663,343.789054 818.26809,314.067173 C772.654791,282.143497 751.373905,221.04252 766.528262,165.485935 C780.438534,114.478473 823.408741,72.5974275 875.998302,58.7951324 C898.344875,52.9268096 921.855724,52.0723819 944.587259,56.1285665 C975.107557,61.566336 999.497275,75.1759173 1021.70493,92.7899518 L1048.62501,64.9133899 Z" id="Combined-Shape" transform="translate(885.468479, 194.843466) scale(-1, 1) rotate(-90.000000) translate(-885.468479, -194.843466) "></path>
            <path d="M1092.46307,323.788636 C1078.15363,309.704207 1062.63446,296.553175 1041.95196,293.3078 C1033.92474,292.047952 1025.69055,292.19414 1017.71754,293.767719 C1016.30329,294.045312 1014.90054,294.367255 1013.506,294.733547 C990.086291,300.883314 971.671484,318.88091 965.442873,341.725718 C958.537526,367.054086 967.987208,393.905112 988.93978,408.566657 C1008.59801,422.324789 1035.34555,422.176958 1053.94104,408.256212 C1066.61673,398.770393 1074.27108,383.931452 1074.37128,368.607953 C1074.46326,354.662568 1067.8815,340.994776 1057.18347,332.074 C1047.65494,324.004074 1036.03379,322.074059 1025.30948,323.66899 C1012.24451,325.610503 1000.81717,334.478717 996.176926,346.277269 C991.952246,357.022935 993.675298,369.478513 1000.55929,378.018214 C1005.16669,383.732701 1012.23301,387.576306 1019.45701,388.30889 C1025.79568,388.951133 1031.88467,387.159094 1036.59883,383.266212 C1042.28211,378.575044 1045.14839,370.511687 1043.56167,363.665472 C1042.25254,358.010118 1038.1412,353.961192 1032.2871,352.558441 C1028.59789,351.67474 1024.88898,353.948052 1024.00528,357.64054 C1023.60942,359.291319 1023.84595,361.05872 1024.66395,362.546885 C1025.05652,363.258116 1025.59857,363.980845 1026.2326,364.496611 C1027.06702,365.173348 1028.09363,365.556066 1028.87877,366.318216 C1029.81503,367.231483 1030.25853,368.575102 1029.77233,369.826737 C1029.36169,370.907546 1028.7063,371.967001 1027.85217,372.670019 C1025.93529,374.25181 1023.57985,374.912122 1020.84334,374.636171 C1017.24941,374.271521 1013.57663,372.26102 1011.26225,369.388172 C1007.42358,364.626373 1006.52509,357.525561 1008.97416,351.295308 C1011.84865,343.989174 1019.05951,338.470152 1027.3479,337.238228 C1034.33373,336.201769 1041.76635,337.198806 1048.25941,342.788458 C1056.36219,349.757866 1060.60001,358.722991 1060.53595,368.612881 C1060.46203,379.662423 1054.89373,390.394949 1045.63787,397.324935 C1031.73027,407.733876 1011.64168,407.740446 996.78139,397.34136 C980.822219,386.171912 973.376467,364.793915 978.67867,345.355789 C983.545593,327.509309 998.58,312.855978 1016.98002,308.026834 C1024.79864,305.973627 1033.02461,305.67468 1040.97791,307.093857 C1057.18882,309.982137 1068.45639,319.459675 1079.61403,330.425197 L1079.61403,323.788636 L1092.46307,323.788636 Z" id="Combined-Shape" transform="translate(1027.835670, 355.627396) scale(-1, 1) rotate(-90.000000) translate(-1027.835670, -355.627396) "></path>
            <path d="M803.591645,341.115148 C802.382819,341.352421 801.183821,341.6276 799.991843,341.940688 C779.973912,347.197185 764.233905,362.580581 758.910017,382.107119 C753.00769,403.756473 761.08478,426.707316 778.993935,439.239231 C795.796754,450.998958 818.659146,450.8726 834.55359,438.973879 C845.388095,430.865901 851.930637,418.182356 852.01628,405.084637 C852.094902,393.164857 846.469159,381.482349 837.325045,373.857339 C829.180563,366.959591 819.247413,365.309916 810.080835,366.673179 C798.913587,368.332682 789.146106,375.912764 785.179866,385.997545 C781.568832,395.182374 783.041606,405.828746 788.925681,413.128032 C792.863842,418.012475 798.903759,421.297785 805.078458,421.92396 C810.496413,422.472916 815.700962,420.941175 819.730382,417.613745 C824.588148,413.603981 827.038092,406.711849 825.681848,400.860065 C824.562877,396.026166 821.048718,392.565358 816.044937,391.36636 C812.891601,390.611019 809.721416,392.554126 808.966076,395.71027 C808.627717,397.121269 808.82989,398.63195 809.529071,399.903955 C809.864622,400.511878 810.327935,401.129629 810.869871,401.570478 C811.583092,402.148917 812.460579,402.476045 813.131681,403.127491 C813.931949,403.908103 814.311023,405.056558 813.895445,406.12639 C813.544451,407.050208 812.984263,407.955774 812.254194,408.556677 C810.615751,409.908709 808.602445,410.473108 806.263416,410.23724 C803.191511,409.925556 800.052214,408.207086 798.074008,405.751527 C794.792909,401.681393 794.024933,395.611992 796.118265,390.2867 C798.575228,384.041802 804.738695,379.324433 811.823173,378.271449 C817.794295,377.385538 824.147299,378.237753 829.697228,383.015493 C836.623055,388.972576 840.245321,396.635492 840.190566,405.088849 C840.127387,414.533415 835.367898,423.707013 827.456477,429.6304 C815.568988,438.527414 798.398327,438.53303 785.69653,429.64444 C772.055471,420.097383 765.691235,401.824598 770.223279,385.209912 C774.383268,369.955682 787.233887,357.430787 802.961258,353.303089 C809.644197,351.548115 816.675324,351.292591 823.473389,352.505629 C838.54791,355.19144 848.621459,364.543344 859.01371,374.946827 C861.661614,377.594731 865.362503,381.298427 868.009003,383.947735 L874.947466,390.886199 C877.2528,393.191532 880.973344,393.191532 883.267445,390.897431 C885.561547,388.603329 885.561547,384.882785 883.267445,382.588684 C883.264637,382.585876 880.948072,380.269311 876.31775,375.638989 C861.473481,360.741369 846.307702,344.174418 824.305949,340.722034 C817.444704,339.645182 810.406558,339.770136 803.591645,341.115148 Z" id="Combined-Shape"></path>
        </g>
    </g>
</svg>